SplineFontDB: 3.2
FontName: OctaPinballDMD_Medium
FullName: OctaPinball DMD Medium
FamilyName: OctaPinball DMD
Weight: Medium
Copyright: Copyright (c) 2022, Octa Pinball
UComments: "2022-7-27: Created with FontForge (http://fontforge.org)"
Version: v1
ItalicAngle: 0
UnderlinePosition: -100
UnderlineWidth: 50
Ascent: 800
Descent: 200
InvalidEm: 0
LayerCount: 2
Layer: 0 0 "Back" 1
Layer: 1 0 "Fore" 0
XUID: [1021 289 2098370475 25534]
StyleMap: 0x0000
FSType: 0
OS2Version: 0
OS2_WeightWidthSlopeOnly: 0
OS2_UseTypoMetrics: 1
CreationTime: 1658938504
ModificationTime: 1658941073
OS2TypoAscent: 0
OS2TypoAOffset: 1
OS2TypoDescent: 0
OS2TypoDOffset: 1
OS2TypoLinegap: 90
OS2WinAscent: 0
OS2WinAOffset: 1
OS2WinDescent: 0
OS2WinDOffset: 1
HheadAscent: 0
HheadAOffset: 1
HheadDescent: 0
HheadDOffset: 1
MarkAttachClasses: 1
DEI: 91125
Encoding: ISO8859-1
UnicodeInterp: none
NameList: AGL For New Fonts
DisplaySize: -48
AntiAlias: 1
FitToEm: 0
WinInfo: 16 16 4
BeginPrivate: 0
EndPrivate
Grid
-1000 85.6666666667 m 0
 2000 85.6666666667 l 1024
  Named: "DOT"
-1000 117.333333333 m 0
 2000 117.333333333 l 1024
856 1300 m 0
 856 -700 l 1024
  Named: "6"
714.5 1300 m 0
 714.5 -700 l 1024
  Named: "5"
571.5 1300 m 0
 571.5 -700 l 1024
  Named: "4"
428.5 1300 m 0
 428.5 -700 l 1024
  Named: "3"
286 1300 m 0
 286 -700 l 1024
  Named: "2"
143 1300 m 0
 143 -700 l 1024
  Named: "1"
EndSplineSet
BeginChars: 256 38

StartChar: A
Encoding: 65 65 0
Width: 856
Flags: HW
LayerCount: 2
Fore
SplineSet
571.428710938 -200 m 1
 571.428710938 -57.142578125 l 1
 714.286132812 -57.142578125 l 1
 714.286132812 -200 l 1
 571.428710938 -200 l 1
0 -200 m 1
 0 -57.142578125 l 1
 142.857421875 -57.142578125 l 1
 142.857421875 -200 l 1
 0 -200 l 1
571.428710938 -57.142578125 m 1
 571.428710938 85.7138671875 l 1
 714.286132812 85.7138671875 l 1
 714.286132812 -57.142578125 l 1
 571.428710938 -57.142578125 l 1
0 -57.142578125 m 1
 0 85.7138671875 l 1
 142.857421875 85.7138671875 l 1
 142.857421875 -57.142578125 l 1
 0 -57.142578125 l 1
571.428710938 85.7138671875 m 1
 571.428710938 228.571289062 l 1
 714.286132812 228.571289062 l 1
 714.286132812 85.7138671875 l 1
 571.428710938 85.7138671875 l 1
0 85.7138671875 m 1
 0 228.571289062 l 1
 142.857421875 228.571289062 l 1
 142.857421875 85.7138671875 l 1
 0 85.7138671875 l 1
571.428710938 228.571289062 m 1
 571.428710938 371.428710938 l 1
 714.286132812 371.428710938 l 1
 714.286132812 228.571289062 l 1
 571.428710938 228.571289062 l 1
428.571289062 228.571289062 m 1
 428.571289062 371.428710938 l 1
 571.428710938 371.428710938 l 1
 571.428710938 228.571289062 l 1
 428.571289062 228.571289062 l 1
285.713867188 228.571289062 m 1
 285.713867188 371.428710938 l 1
 428.571289062 371.428710938 l 1
 428.571289062 228.571289062 l 1
 285.713867188 228.571289062 l 1
142.857421875 228.571289062 m 1
 142.857421875 371.428710938 l 1
 285.713867188 371.428710938 l 1
 285.713867188 228.571289062 l 1
 142.857421875 228.571289062 l 1
0 228.571289062 m 1
 0 371.428710938 l 1
 142.857421875 371.428710938 l 1
 142.857421875 228.571289062 l 1
 0 228.571289062 l 1
571.428710938 371.428710938 m 1
 571.428710938 514.286132812 l 1
 714.286132812 514.286132812 l 1
 714.286132812 371.428710938 l 1
 571.428710938 371.428710938 l 1
0 371.428710938 m 1
 0 514.286132812 l 1
 142.857421875 514.286132812 l 1
 142.857421875 371.428710938 l 1
 0 371.428710938 l 1
571.428710938 514.286132812 m 1
 571.428710938 657.142578125 l 1
 714.286132812 657.142578125 l 1
 714.286132812 514.286132812 l 1
 571.428710938 514.286132812 l 1
0 514.286132812 m 1
 0 657.142578125 l 1
 142.857421875 657.142578125 l 1
 142.857421875 514.286132812 l 1
 0 514.286132812 l 1
428.571289062 657.142578125 m 1
 428.571289062 800 l 1
 571.428710938 800 l 1
 571.428710938 657.142578125 l 1
 428.571289062 657.142578125 l 1
285.713867188 657.142578125 m 1
 285.713867188 800 l 1
 428.571289062 800 l 1
 428.571289062 657.142578125 l 1
 285.713867188 657.142578125 l 1
142.857421875 657.142578125 m 1
 142.857421875 800 l 1
 285.713867188 800 l 1
 285.713867188 657.142578125 l 1
 142.857421875 657.142578125 l 1
EndSplineSet
Validated: 524293
EndChar

StartChar: B
Encoding: 66 66 1
Width: 856
Flags: HW
LayerCount: 2
Fore
SplineSet
428.571289062 -200 m 1
 428.571289062 -57.142578125 l 1
 571.428710938 -57.142578125 l 1
 571.428710938 -200 l 1
 428.571289062 -200 l 1
285.713867188 -200 m 1
 285.713867188 -57.142578125 l 1
 428.571289062 -57.142578125 l 1
 428.571289062 -200 l 1
 285.713867188 -200 l 1
142.857421875 -200 m 1
 142.857421875 -57.142578125 l 1
 285.713867188 -57.142578125 l 1
 285.713867188 -200 l 1
 142.857421875 -200 l 1
0 -200 m 1
 0 -57.142578125 l 1
 142.857421875 -57.142578125 l 1
 142.857421875 -200 l 1
 0 -200 l 1
571.428710938 -57.142578125 m 1
 571.428710938 85.7138671875 l 1
 714.286132812 85.7138671875 l 1
 714.286132812 -57.142578125 l 1
 571.428710938 -57.142578125 l 1
0 -57.142578125 m 1
 0 85.7138671875 l 1
 142.857421875 85.7138671875 l 1
 142.857421875 -57.142578125 l 1
 0 -57.142578125 l 1
571.428710938 85.7138671875 m 1
 571.428710938 228.571289062 l 1
 714.286132812 228.571289062 l 1
 714.286132812 85.7138671875 l 1
 571.428710938 85.7138671875 l 1
0 85.7138671875 m 1
 0 228.571289062 l 1
 142.857421875 228.571289062 l 1
 142.857421875 85.7138671875 l 1
 0 85.7138671875 l 1
428.571289062 228.571289062 m 1
 428.571289062 371.428710938 l 1
 571.428710938 371.428710938 l 1
 571.428710938 228.571289062 l 1
 428.571289062 228.571289062 l 1
285.713867188 228.571289062 m 1
 285.713867188 371.428710938 l 1
 428.571289062 371.428710938 l 1
 428.571289062 228.571289062 l 1
 285.713867188 228.571289062 l 1
142.857421875 228.571289062 m 1
 142.857421875 371.428710938 l 1
 285.713867188 371.428710938 l 1
 285.713867188 228.571289062 l 1
 142.857421875 228.571289062 l 1
0 228.571289062 m 1
 0 371.428710938 l 1
 142.857421875 371.428710938 l 1
 142.857421875 228.571289062 l 1
 0 228.571289062 l 1
571.428710938 371.428710938 m 1
 571.428710938 514.286132812 l 1
 714.286132812 514.286132812 l 1
 714.286132812 371.428710938 l 1
 571.428710938 371.428710938 l 1
0 371.428710938 m 1
 0 514.286132812 l 1
 142.857421875 514.286132812 l 1
 142.857421875 371.428710938 l 1
 0 371.428710938 l 1
571.428710938 514.286132812 m 1
 571.428710938 657.142578125 l 1
 714.286132812 657.142578125 l 1
 714.286132812 514.286132812 l 1
 571.428710938 514.286132812 l 1
0 514.286132812 m 1
 0 657.142578125 l 1
 142.857421875 657.142578125 l 1
 142.857421875 514.286132812 l 1
 0 514.286132812 l 1
428.571289062 657.142578125 m 1
 428.571289062 800 l 1
 571.428710938 800 l 1
 571.428710938 657.142578125 l 1
 428.571289062 657.142578125 l 1
285.713867188 657.142578125 m 1
 285.713867188 800 l 1
 428.571289062 800 l 1
 428.571289062 657.142578125 l 1
 285.713867188 657.142578125 l 1
142.857421875 657.142578125 m 1
 142.857421875 800 l 1
 285.713867188 800 l 1
 285.713867188 657.142578125 l 1
 142.857421875 657.142578125 l 1
0 657.142578125 m 1
 0 800 l 1
 142.857421875 800 l 1
 142.857421875 657.142578125 l 1
 0 657.142578125 l 1
EndSplineSet
Validated: 524293
EndChar

StartChar: C
Encoding: 67 67 2
Width: 856
Flags: HW
LayerCount: 2
Fore
SplineSet
428.571289062 -200 m 1
 428.571289062 -57.142578125 l 1
 571.428710938 -57.142578125 l 1
 571.428710938 -200 l 1
 428.571289062 -200 l 1
285.713867188 -200 m 1
 285.713867188 -57.142578125 l 1
 428.571289062 -57.142578125 l 1
 428.571289062 -200 l 1
 285.713867188 -200 l 1
142.857421875 -200 m 1
 142.857421875 -57.142578125 l 1
 285.713867188 -57.142578125 l 1
 285.713867188 -200 l 1
 142.857421875 -200 l 1
571.428710938 -57.142578125 m 1
 571.428710938 85.7138671875 l 1
 714.286132812 85.7138671875 l 1
 714.286132812 -57.142578125 l 1
 571.428710938 -57.142578125 l 1
0 -57.142578125 m 1
 0 85.7138671875 l 1
 142.857421875 85.7138671875 l 1
 142.857421875 -57.142578125 l 1
 0 -57.142578125 l 1
0 85.7138671875 m 1
 0 228.571289062 l 1
 142.857421875 228.571289062 l 1
 142.857421875 85.7138671875 l 1
 0 85.7138671875 l 1
0 228.571289062 m 1
 0 371.428710938 l 1
 142.857421875 371.428710938 l 1
 142.857421875 228.571289062 l 1
 0 228.571289062 l 1
0 371.428710938 m 1
 0 514.286132812 l 1
 142.857421875 514.286132812 l 1
 142.857421875 371.428710938 l 1
 0 371.428710938 l 1
571.428710938 514.286132812 m 1
 571.428710938 657.142578125 l 1
 714.286132812 657.142578125 l 1
 714.286132812 514.286132812 l 1
 571.428710938 514.286132812 l 1
0 514.286132812 m 1
 0 657.142578125 l 1
 142.857421875 657.142578125 l 1
 142.857421875 514.286132812 l 1
 0 514.286132812 l 1
428.571289062 657.142578125 m 1
 428.571289062 800 l 1
 571.428710938 800 l 1
 571.428710938 657.142578125 l 1
 428.571289062 657.142578125 l 1
285.713867188 657.142578125 m 1
 285.713867188 800 l 1
 428.571289062 800 l 1
 428.571289062 657.142578125 l 1
 285.713867188 657.142578125 l 1
142.857421875 657.142578125 m 1
 142.857421875 800 l 1
 285.713867188 800 l 1
 285.713867188 657.142578125 l 1
 142.857421875 657.142578125 l 1
EndSplineSet
Validated: 524293
EndChar

StartChar: D
Encoding: 68 68 3
Width: 856
Flags: HW
LayerCount: 2
Fore
SplineSet
428.571289062 -200 m 1
 428.571289062 -57.142578125 l 1
 571.428710938 -57.142578125 l 1
 571.428710938 -200 l 1
 428.571289062 -200 l 1
285.713867188 -200 m 1
 285.713867188 -57.142578125 l 1
 428.571289062 -57.142578125 l 1
 428.571289062 -200 l 1
 285.713867188 -200 l 1
142.857421875 -200 m 1
 142.857421875 -57.142578125 l 1
 285.713867188 -57.142578125 l 1
 285.713867188 -200 l 1
 142.857421875 -200 l 1
0 -200 m 1
 0 -57.142578125 l 1
 142.857421875 -57.142578125 l 1
 142.857421875 -200 l 1
 0 -200 l 1
571.428710938 -57.142578125 m 1
 571.428710938 85.7138671875 l 1
 714.286132812 85.7138671875 l 1
 714.286132812 -57.142578125 l 1
 571.428710938 -57.142578125 l 1
0 -57.142578125 m 1
 0 85.7138671875 l 1
 142.857421875 85.7138671875 l 1
 142.857421875 -57.142578125 l 1
 0 -57.142578125 l 1
571.428710938 85.7138671875 m 1
 571.428710938 228.571289062 l 1
 714.286132812 228.571289062 l 1
 714.286132812 85.7138671875 l 1
 571.428710938 85.7138671875 l 1
0 85.7138671875 m 1
 0 228.571289062 l 1
 142.857421875 228.571289062 l 1
 142.857421875 85.7138671875 l 1
 0 85.7138671875 l 1
571.428710938 228.571289062 m 1
 571.428710938 371.428710938 l 1
 714.286132812 371.428710938 l 1
 714.286132812 228.571289062 l 1
 571.428710938 228.571289062 l 1
0 228.571289062 m 1
 0 371.428710938 l 1
 142.857421875 371.428710938 l 1
 142.857421875 228.571289062 l 1
 0 228.571289062 l 1
571.428710938 371.428710938 m 1
 571.428710938 514.286132812 l 1
 714.286132812 514.286132812 l 1
 714.286132812 371.428710938 l 1
 571.428710938 371.428710938 l 1
0 371.428710938 m 1
 0 514.286132812 l 1
 142.857421875 514.286132812 l 1
 142.857421875 371.428710938 l 1
 0 371.428710938 l 1
571.428710938 514.286132812 m 1
 571.428710938 657.142578125 l 1
 714.286132812 657.142578125 l 1
 714.286132812 514.286132812 l 1
 571.428710938 514.286132812 l 1
0 514.286132812 m 1
 0 657.142578125 l 1
 142.857421875 657.142578125 l 1
 142.857421875 514.286132812 l 1
 0 514.286132812 l 1
428.571289062 657.142578125 m 1
 428.571289062 800 l 1
 571.428710938 800 l 1
 571.428710938 657.142578125 l 1
 428.571289062 657.142578125 l 1
285.713867188 657.142578125 m 1
 285.713867188 800 l 1
 428.571289062 800 l 1
 428.571289062 657.142578125 l 1
 285.713867188 657.142578125 l 1
142.857421875 657.142578125 m 1
 142.857421875 800 l 1
 285.713867188 800 l 1
 285.713867188 657.142578125 l 1
 142.857421875 657.142578125 l 1
0 657.142578125 m 1
 0 800 l 1
 142.857421875 800 l 1
 142.857421875 657.142578125 l 1
 0 657.142578125 l 1
EndSplineSet
Validated: 524293
EndChar

StartChar: E
Encoding: 69 69 4
Width: 856
Flags: HW
LayerCount: 2
Fore
SplineSet
571.428710938 -200 m 1
 571.428710938 -57.142578125 l 1
 714.286132812 -57.142578125 l 1
 714.286132812 -200 l 1
 571.428710938 -200 l 1
428.571289062 -200 m 1
 428.571289062 -57.142578125 l 1
 571.428710938 -57.142578125 l 1
 571.428710938 -200 l 1
 428.571289062 -200 l 1
285.713867188 -200 m 1
 285.713867188 -57.142578125 l 1
 428.571289062 -57.142578125 l 1
 428.571289062 -200 l 1
 285.713867188 -200 l 1
142.857421875 -200 m 1
 142.857421875 -57.142578125 l 1
 285.713867188 -57.142578125 l 1
 285.713867188 -200 l 1
 142.857421875 -200 l 1
0 -200 m 1
 0 -57.142578125 l 1
 142.857421875 -57.142578125 l 1
 142.857421875 -200 l 1
 0 -200 l 1
0 -57.142578125 m 1
 0 85.7138671875 l 1
 142.857421875 85.7138671875 l 1
 142.857421875 -57.142578125 l 1
 0 -57.142578125 l 1
0 85.7138671875 m 1
 0 228.571289062 l 1
 142.857421875 228.571289062 l 1
 142.857421875 85.7138671875 l 1
 0 85.7138671875 l 1
428.571289062 228.571289062 m 1
 428.571289062 371.428710938 l 1
 571.428710938 371.428710938 l 1
 571.428710938 228.571289062 l 1
 428.571289062 228.571289062 l 1
285.713867188 228.571289062 m 1
 285.713867188 371.428710938 l 1
 428.571289062 371.428710938 l 1
 428.571289062 228.571289062 l 1
 285.713867188 228.571289062 l 1
142.857421875 228.571289062 m 1
 142.857421875 371.428710938 l 1
 285.713867188 371.428710938 l 1
 285.713867188 228.571289062 l 1
 142.857421875 228.571289062 l 1
0 228.571289062 m 1
 0 371.428710938 l 1
 142.857421875 371.428710938 l 1
 142.857421875 228.571289062 l 1
 0 228.571289062 l 1
0 371.428710938 m 1
 0 514.286132812 l 1
 142.857421875 514.286132812 l 1
 142.857421875 371.428710938 l 1
 0 371.428710938 l 1
0 514.286132812 m 1
 0 657.142578125 l 1
 142.857421875 657.142578125 l 1
 142.857421875 514.286132812 l 1
 0 514.286132812 l 1
571.428710938 657.142578125 m 1
 571.428710938 800 l 1
 714.286132812 800 l 1
 714.286132812 657.142578125 l 1
 571.428710938 657.142578125 l 1
428.571289062 657.142578125 m 1
 428.571289062 800 l 1
 571.428710938 800 l 1
 571.428710938 657.142578125 l 1
 428.571289062 657.142578125 l 1
285.713867188 657.142578125 m 1
 285.713867188 800 l 1
 428.571289062 800 l 1
 428.571289062 657.142578125 l 1
 285.713867188 657.142578125 l 1
142.857421875 657.142578125 m 1
 142.857421875 800 l 1
 285.713867188 800 l 1
 285.713867188 657.142578125 l 1
 142.857421875 657.142578125 l 1
0 657.142578125 m 1
 0 800 l 1
 142.857421875 800 l 1
 142.857421875 657.142578125 l 1
 0 657.142578125 l 1
EndSplineSet
Validated: 524293
EndChar

StartChar: F
Encoding: 70 70 5
Width: 856
Flags: HW
LayerCount: 2
Fore
SplineSet
0 -200 m 1
 0 -57.142578125 l 1
 142.857421875 -57.142578125 l 1
 142.857421875 -200 l 1
 0 -200 l 1
0 -57.142578125 m 1
 0 85.7138671875 l 1
 142.857421875 85.7138671875 l 1
 142.857421875 -57.142578125 l 1
 0 -57.142578125 l 1
0 85.7138671875 m 1
 0 228.571289062 l 1
 142.857421875 228.571289062 l 1
 142.857421875 85.7138671875 l 1
 0 85.7138671875 l 1
428.571289062 228.571289062 m 1
 428.571289062 371.428710938 l 1
 571.428710938 371.428710938 l 1
 571.428710938 228.571289062 l 1
 428.571289062 228.571289062 l 1
285.713867188 228.571289062 m 1
 285.713867188 371.428710938 l 1
 428.571289062 371.428710938 l 1
 428.571289062 228.571289062 l 1
 285.713867188 228.571289062 l 1
142.857421875 228.571289062 m 1
 142.857421875 371.428710938 l 1
 285.713867188 371.428710938 l 1
 285.713867188 228.571289062 l 1
 142.857421875 228.571289062 l 1
0 228.571289062 m 1
 0 371.428710938 l 1
 142.857421875 371.428710938 l 1
 142.857421875 228.571289062 l 1
 0 228.571289062 l 1
0 371.428710938 m 1
 0 514.286132812 l 1
 142.857421875 514.286132812 l 1
 142.857421875 371.428710938 l 1
 0 371.428710938 l 1
0 514.286132812 m 1
 0 657.142578125 l 1
 142.857421875 657.142578125 l 1
 142.857421875 514.286132812 l 1
 0 514.286132812 l 1
571.428710938 657.142578125 m 1
 571.428710938 800 l 1
 714.286132812 800 l 1
 714.286132812 657.142578125 l 1
 571.428710938 657.142578125 l 1
428.571289062 657.142578125 m 1
 428.571289062 800 l 1
 571.428710938 800 l 1
 571.428710938 657.142578125 l 1
 428.571289062 657.142578125 l 1
285.713867188 657.142578125 m 1
 285.713867188 800 l 1
 428.571289062 800 l 1
 428.571289062 657.142578125 l 1
 285.713867188 657.142578125 l 1
142.857421875 657.142578125 m 1
 142.857421875 800 l 1
 285.713867188 800 l 1
 285.713867188 657.142578125 l 1
 142.857421875 657.142578125 l 1
0 657.142578125 m 1
 0 800 l 1
 142.857421875 800 l 1
 142.857421875 657.142578125 l 1
 0 657.142578125 l 1
EndSplineSet
Validated: 524293
EndChar

StartChar: G
Encoding: 71 71 6
Width: 856
Flags: HW
LayerCount: 2
Fore
SplineSet
571.428710938 -200 m 1
 571.428710938 -57.142578125 l 1
 714.286132812 -57.142578125 l 1
 714.286132812 -200 l 1
 571.428710938 -200 l 1
428.571289062 -200 m 1
 428.571289062 -57.142578125 l 1
 571.428710938 -57.142578125 l 1
 571.428710938 -200 l 1
 428.571289062 -200 l 1
285.713867188 -200 m 1
 285.713867188 -57.142578125 l 1
 428.571289062 -57.142578125 l 1
 428.571289062 -200 l 1
 285.713867188 -200 l 1
142.857421875 -200 m 1
 142.857421875 -57.142578125 l 1
 285.713867188 -57.142578125 l 1
 285.713867188 -200 l 1
 142.857421875 -200 l 1
571.428710938 -57.142578125 m 1
 571.428710938 85.7138671875 l 1
 714.286132812 85.7138671875 l 1
 714.286132812 -57.142578125 l 1
 571.428710938 -57.142578125 l 1
0 -57.142578125 m 1
 0 85.7138671875 l 1
 142.857421875 85.7138671875 l 1
 142.857421875 -57.142578125 l 1
 0 -57.142578125 l 1
571.428710938 85.7138671875 m 1
 571.428710938 228.571289062 l 1
 714.286132812 228.571289062 l 1
 714.286132812 85.7138671875 l 1
 571.428710938 85.7138671875 l 1
0 85.7138671875 m 1
 0 228.571289062 l 1
 142.857421875 228.571289062 l 1
 142.857421875 85.7138671875 l 1
 0 85.7138671875 l 1
571.428710938 228.571289062 m 1
 571.428710938 371.428710938 l 1
 714.286132812 371.428710938 l 1
 714.286132812 228.571289062 l 1
 571.428710938 228.571289062 l 1
428.571289062 228.571289062 m 1
 428.571289062 371.428710938 l 1
 571.428710938 371.428710938 l 1
 571.428710938 228.571289062 l 1
 428.571289062 228.571289062 l 1
285.713867188 228.571289062 m 1
 285.713867188 371.428710938 l 1
 428.571289062 371.428710938 l 1
 428.571289062 228.571289062 l 1
 285.713867188 228.571289062 l 1
0 228.571289062 m 1
 0 371.428710938 l 1
 142.857421875 371.428710938 l 1
 142.857421875 228.571289062 l 1
 0 228.571289062 l 1
0 371.428710938 m 1
 0 514.286132812 l 1
 142.857421875 514.286132812 l 1
 142.857421875 371.428710938 l 1
 0 371.428710938 l 1
571.428710938 514.286132812 m 1
 571.428710938 657.142578125 l 1
 714.286132812 657.142578125 l 1
 714.286132812 514.286132812 l 1
 571.428710938 514.286132812 l 1
0 514.286132812 m 1
 0 657.142578125 l 1
 142.857421875 657.142578125 l 1
 142.857421875 514.286132812 l 1
 0 514.286132812 l 1
428.571289062 657.142578125 m 1
 428.571289062 800 l 1
 571.428710938 800 l 1
 571.428710938 657.142578125 l 1
 428.571289062 657.142578125 l 1
285.713867188 657.142578125 m 1
 285.713867188 800 l 1
 428.571289062 800 l 1
 428.571289062 657.142578125 l 1
 285.713867188 657.142578125 l 1
142.857421875 657.142578125 m 1
 142.857421875 800 l 1
 285.713867188 800 l 1
 285.713867188 657.142578125 l 1
 142.857421875 657.142578125 l 1
EndSplineSet
Validated: 524293
EndChar

StartChar: H
Encoding: 72 72 7
Width: 856
Flags: HW
LayerCount: 2
Fore
SplineSet
571.428710938 -200 m 1
 571.428710938 -57.142578125 l 1
 714.286132812 -57.142578125 l 1
 714.286132812 -200 l 1
 571.428710938 -200 l 1
0 -200 m 1
 0 -57.142578125 l 1
 142.857421875 -57.142578125 l 1
 142.857421875 -200 l 1
 0 -200 l 1
571.428710938 -57.142578125 m 1
 571.428710938 85.7138671875 l 1
 714.286132812 85.7138671875 l 1
 714.286132812 -57.142578125 l 1
 571.428710938 -57.142578125 l 1
0 -57.142578125 m 1
 0 85.7138671875 l 1
 142.857421875 85.7138671875 l 1
 142.857421875 -57.142578125 l 1
 0 -57.142578125 l 1
571.428710938 85.7138671875 m 1
 571.428710938 228.571289062 l 1
 714.286132812 228.571289062 l 1
 714.286132812 85.7138671875 l 1
 571.428710938 85.7138671875 l 1
0 85.7138671875 m 1
 0 228.571289062 l 1
 142.857421875 228.571289062 l 1
 142.857421875 85.7138671875 l 1
 0 85.7138671875 l 1
571.428710938 228.571289062 m 1
 571.428710938 371.428710938 l 1
 714.286132812 371.428710938 l 1
 714.286132812 228.571289062 l 1
 571.428710938 228.571289062 l 1
428.571289062 228.571289062 m 1
 428.571289062 371.428710938 l 1
 571.428710938 371.428710938 l 1
 571.428710938 228.571289062 l 1
 428.571289062 228.571289062 l 1
285.713867188 228.571289062 m 1
 285.713867188 371.428710938 l 1
 428.571289062 371.428710938 l 1
 428.571289062 228.571289062 l 1
 285.713867188 228.571289062 l 1
142.857421875 228.571289062 m 1
 142.857421875 371.428710938 l 1
 285.713867188 371.428710938 l 1
 285.713867188 228.571289062 l 1
 142.857421875 228.571289062 l 1
0 228.571289062 m 1
 0 371.428710938 l 1
 142.857421875 371.428710938 l 1
 142.857421875 228.571289062 l 1
 0 228.571289062 l 1
571.428710938 371.428710938 m 1
 571.428710938 514.286132812 l 1
 714.286132812 514.286132812 l 1
 714.286132812 371.428710938 l 1
 571.428710938 371.428710938 l 1
0 371.428710938 m 1
 0 514.286132812 l 1
 142.857421875 514.286132812 l 1
 142.857421875 371.428710938 l 1
 0 371.428710938 l 1
571.428710938 514.286132812 m 1
 571.428710938 657.142578125 l 1
 714.286132812 657.142578125 l 1
 714.286132812 514.286132812 l 1
 571.428710938 514.286132812 l 1
0 514.286132812 m 1
 0 657.142578125 l 1
 142.857421875 657.142578125 l 1
 142.857421875 514.286132812 l 1
 0 514.286132812 l 1
571.428710938 657.142578125 m 1
 571.428710938 800 l 1
 714.286132812 800 l 1
 714.286132812 657.142578125 l 1
 571.428710938 657.142578125 l 1
0 657.142578125 m 1
 0 800 l 1
 142.857421875 800 l 1
 142.857421875 657.142578125 l 1
 0 657.142578125 l 1
EndSplineSet
Validated: 524293
EndChar

StartChar: I
Encoding: 73 73 8
Width: 571
Flags: HW
LayerCount: 2
Fore
SplineSet
285.713867188 -200 m 1
 285.713867188 -57.142578125 l 1
 428.571289062 -57.142578125 l 1
 428.571289062 -200 l 1
 285.713867188 -200 l 1
142.857421875 -200 m 1
 142.857421875 -57.142578125 l 1
 285.713867188 -57.142578125 l 1
 285.713867188 -200 l 1
 142.857421875 -200 l 1
0 -200 m 1
 0 -57.142578125 l 1
 142.857421875 -57.142578125 l 1
 142.857421875 -200 l 1
 0 -200 l 1
142.857421875 -57.142578125 m 1
 142.857421875 85.7138671875 l 1
 285.713867188 85.7138671875 l 1
 285.713867188 -57.142578125 l 1
 142.857421875 -57.142578125 l 1
142.857421875 85.7138671875 m 1
 142.857421875 228.571289062 l 1
 285.713867188 228.571289062 l 1
 285.713867188 85.7138671875 l 1
 142.857421875 85.7138671875 l 1
142.857421875 228.571289062 m 1
 142.857421875 371.428710938 l 1
 285.713867188 371.428710938 l 1
 285.713867188 228.571289062 l 1
 142.857421875 228.571289062 l 1
142.857421875 371.428710938 m 1
 142.857421875 514.286132812 l 1
 285.713867188 514.286132812 l 1
 285.713867188 371.428710938 l 1
 142.857421875 371.428710938 l 1
142.857421875 514.286132812 m 1
 142.857421875 657.142578125 l 1
 285.713867188 657.142578125 l 1
 285.713867188 514.286132812 l 1
 142.857421875 514.286132812 l 1
285.713867188 657.142578125 m 1
 285.713867188 800 l 1
 428.571289062 800 l 1
 428.571289062 657.142578125 l 1
 285.713867188 657.142578125 l 1
142.857421875 657.142578125 m 1
 142.857421875 800 l 1
 285.713867188 800 l 1
 285.713867188 657.142578125 l 1
 142.857421875 657.142578125 l 1
0 657.142578125 m 1
 0 800 l 1
 142.857421875 800 l 1
 142.857421875 657.142578125 l 1
 0 657.142578125 l 1
EndSplineSet
Validated: 524293
EndChar

StartChar: J
Encoding: 74 74 9
Width: 856
Flags: HW
LayerCount: 2
Fore
SplineSet
285.713867188 -200 m 1
 285.713867188 -57.142578125 l 1
 428.571289062 -57.142578125 l 1
 428.571289062 -200 l 1
 285.713867188 -200 l 1
142.857421875 -200 m 1
 142.857421875 -57.142578125 l 1
 285.713867188 -57.142578125 l 1
 285.713867188 -200 l 1
 142.857421875 -200 l 1
428.571289062 -57.142578125 m 1
 428.571289062 85.7138671875 l 1
 571.428710938 85.7138671875 l 1
 571.428710938 -57.142578125 l 1
 428.571289062 -57.142578125 l 1
0 -57.142578125 m 1
 0 85.7138671875 l 1
 142.857421875 85.7138671875 l 1
 142.857421875 -57.142578125 l 1
 0 -57.142578125 l 1
428.571289062 85.7138671875 m 1
 428.571289062 228.571289062 l 1
 571.428710938 228.571289062 l 1
 571.428710938 85.7138671875 l 1
 428.571289062 85.7138671875 l 1
428.571289062 228.571289062 m 1
 428.571289062 371.428710938 l 1
 571.428710938 371.428710938 l 1
 571.428710938 228.571289062 l 1
 428.571289062 228.571289062 l 1
428.571289062 371.428710938 m 1
 428.571289062 514.286132812 l 1
 571.428710938 514.286132812 l 1
 571.428710938 371.428710938 l 1
 428.571289062 371.428710938 l 1
428.571289062 514.286132812 m 1
 428.571289062 657.142578125 l 1
 571.428710938 657.142578125 l 1
 571.428710938 514.286132812 l 1
 428.571289062 514.286132812 l 1
571.428710938 657.142578125 m 1
 571.428710938 800 l 1
 714.286132812 800 l 1
 714.286132812 657.142578125 l 1
 571.428710938 657.142578125 l 1
428.571289062 657.142578125 m 1
 428.571289062 800 l 1
 571.428710938 800 l 1
 571.428710938 657.142578125 l 1
 428.571289062 657.142578125 l 1
285.713867188 657.142578125 m 1
 285.713867188 800 l 1
 428.571289062 800 l 1
 428.571289062 657.142578125 l 1
 285.713867188 657.142578125 l 1
EndSplineSet
Validated: 524293
EndChar

StartChar: K
Encoding: 75 75 10
Width: 856
Flags: HW
LayerCount: 2
Fore
SplineSet
571.428710938 -200 m 1
 571.428710938 -57.142578125 l 1
 714.286132812 -57.142578125 l 1
 714.286132812 -200 l 1
 571.428710938 -200 l 1
0 -200 m 1
 0 -57.142578125 l 1
 142.857421875 -57.142578125 l 1
 142.857421875 -200 l 1
 0 -200 l 1
428.571289062 -57.142578125 m 1
 428.571289062 85.7138671875 l 1
 571.428710938 85.7138671875 l 1
 571.428710938 -57.142578125 l 1
 428.571289062 -57.142578125 l 1
0 -57.142578125 m 1
 0 85.7138671875 l 1
 142.857421875 85.7138671875 l 1
 142.857421875 -57.142578125 l 1
 0 -57.142578125 l 1
285.713867188 85.7138671875 m 1
 285.713867188 228.571289062 l 1
 428.571289062 228.571289062 l 1
 428.571289062 85.7138671875 l 1
 285.713867188 85.7138671875 l 1
0 85.7138671875 m 1
 0 228.571289062 l 1
 142.857421875 228.571289062 l 1
 142.857421875 85.7138671875 l 1
 0 85.7138671875 l 1
142.857421875 228.571289062 m 1
 142.857421875 371.428710938 l 1
 285.713867188 371.428710938 l 1
 285.713867188 228.571289062 l 1
 142.857421875 228.571289062 l 1
0 228.571289062 m 1
 0 371.428710938 l 1
 142.857421875 371.428710938 l 1
 142.857421875 228.571289062 l 1
 0 228.571289062 l 1
285.713867188 371.428710938 m 1
 285.713867188 514.286132812 l 1
 428.571289062 514.286132812 l 1
 428.571289062 371.428710938 l 1
 285.713867188 371.428710938 l 1
0 371.428710938 m 1
 0 514.286132812 l 1
 142.857421875 514.286132812 l 1
 142.857421875 371.428710938 l 1
 0 371.428710938 l 1
428.571289062 514.286132812 m 1
 428.571289062 657.142578125 l 1
 571.428710938 657.142578125 l 1
 571.428710938 514.286132812 l 1
 428.571289062 514.286132812 l 1
0 514.286132812 m 1
 0 657.142578125 l 1
 142.857421875 657.142578125 l 1
 142.857421875 514.286132812 l 1
 0 514.286132812 l 1
571.428710938 657.142578125 m 1
 571.428710938 800 l 1
 714.286132812 800 l 1
 714.286132812 657.142578125 l 1
 571.428710938 657.142578125 l 1
0 657.142578125 m 1
 0 800 l 1
 142.857421875 800 l 1
 142.857421875 657.142578125 l 1
 0 657.142578125 l 1
EndSplineSet
Validated: 524293
EndChar

StartChar: L
Encoding: 76 76 11
Width: 856
Flags: HW
LayerCount: 2
Fore
SplineSet
571.428710938 -200 m 1
 571.428710938 -57.142578125 l 1
 714.286132812 -57.142578125 l 1
 714.286132812 -200 l 1
 571.428710938 -200 l 1
428.571289062 -200 m 1
 428.571289062 -57.142578125 l 1
 571.428710938 -57.142578125 l 1
 571.428710938 -200 l 1
 428.571289062 -200 l 1
285.713867188 -200 m 1
 285.713867188 -57.142578125 l 1
 428.571289062 -57.142578125 l 1
 428.571289062 -200 l 1
 285.713867188 -200 l 1
142.857421875 -200 m 1
 142.857421875 -57.142578125 l 1
 285.713867188 -57.142578125 l 1
 285.713867188 -200 l 1
 142.857421875 -200 l 1
0 -200 m 1
 0 -57.142578125 l 1
 142.857421875 -57.142578125 l 1
 142.857421875 -200 l 1
 0 -200 l 1
0 -57.142578125 m 1
 0 85.7138671875 l 1
 142.857421875 85.7138671875 l 1
 142.857421875 -57.142578125 l 1
 0 -57.142578125 l 1
0 85.7138671875 m 1
 0 228.571289062 l 1
 142.857421875 228.571289062 l 1
 142.857421875 85.7138671875 l 1
 0 85.7138671875 l 1
0 228.571289062 m 1
 0 371.428710938 l 1
 142.857421875 371.428710938 l 1
 142.857421875 228.571289062 l 1
 0 228.571289062 l 1
0 371.428710938 m 1
 0 514.286132812 l 1
 142.857421875 514.286132812 l 1
 142.857421875 371.428710938 l 1
 0 371.428710938 l 1
0 514.286132812 m 1
 0 657.142578125 l 1
 142.857421875 657.142578125 l 1
 142.857421875 514.286132812 l 1
 0 514.286132812 l 1
0 657.142578125 m 1
 0 800 l 1
 142.857421875 800 l 1
 142.857421875 657.142578125 l 1
 0 657.142578125 l 1
EndSplineSet
Validated: 524293
EndChar

StartChar: M
Encoding: 77 77 12
Width: 856
Flags: HW
LayerCount: 2
Fore
SplineSet
571.428710938 -200 m 1
 571.428710938 -57.142578125 l 1
 714.286132812 -57.142578125 l 1
 714.286132812 -200 l 1
 571.428710938 -200 l 1
0 -200 m 1
 0 -57.142578125 l 1
 142.857421875 -57.142578125 l 1
 142.857421875 -200 l 1
 0 -200 l 1
571.428710938 -57.142578125 m 1
 571.428710938 85.7138671875 l 1
 714.286132812 85.7138671875 l 1
 714.286132812 -57.142578125 l 1
 571.428710938 -57.142578125 l 1
0 -57.142578125 m 1
 0 85.7138671875 l 1
 142.857421875 85.7138671875 l 1
 142.857421875 -57.142578125 l 1
 0 -57.142578125 l 1
571.428710938 85.7138671875 m 1
 571.428710938 228.571289062 l 1
 714.286132812 228.571289062 l 1
 714.286132812 85.7138671875 l 1
 571.428710938 85.7138671875 l 1
0 85.7138671875 m 1
 0 228.571289062 l 1
 142.857421875 228.571289062 l 1
 142.857421875 85.7138671875 l 1
 0 85.7138671875 l 1
571.428710938 228.571289062 m 1
 571.428710938 371.428710938 l 1
 714.286132812 371.428710938 l 1
 714.286132812 228.571289062 l 1
 571.428710938 228.571289062 l 1
285.713867188 228.571289062 m 1
 285.713867188 371.428710938 l 1
 428.571289062 371.428710938 l 1
 428.571289062 228.571289062 l 1
 285.713867188 228.571289062 l 1
0 228.571289062 m 1
 0 371.428710938 l 1
 142.857421875 371.428710938 l 1
 142.857421875 228.571289062 l 1
 0 228.571289062 l 1
571.428710938 371.428710938 m 1
 571.428710938 514.286132812 l 1
 714.286132812 514.286132812 l 1
 714.286132812 371.428710938 l 1
 571.428710938 371.428710938 l 1
285.713867188 371.428710938 m 1
 285.713867188 514.286132812 l 1
 428.571289062 514.286132812 l 1
 428.571289062 371.428710938 l 1
 285.713867188 371.428710938 l 1
0 371.428710938 m 1
 0 514.286132812 l 1
 142.857421875 514.286132812 l 1
 142.857421875 371.428710938 l 1
 0 371.428710938 l 1
571.428710938 514.286132812 m 1
 571.428710938 657.142578125 l 1
 714.286132812 657.142578125 l 1
 714.286132812 514.286132812 l 1
 571.428710938 514.286132812 l 1
428.571289062 514.286132812 m 1
 428.571289062 657.142578125 l 1
 571.428710938 657.142578125 l 1
 571.428710938 514.286132812 l 1
 428.571289062 514.286132812 l 1
142.857421875 514.286132812 m 1
 142.857421875 657.142578125 l 1
 285.713867188 657.142578125 l 1
 285.713867188 514.286132812 l 1
 142.857421875 514.286132812 l 1
0 514.286132812 m 1
 0 657.142578125 l 1
 142.857421875 657.142578125 l 1
 142.857421875 514.286132812 l 1
 0 514.286132812 l 1
571.428710938 657.142578125 m 1
 571.428710938 800 l 1
 714.286132812 800 l 1
 714.286132812 657.142578125 l 1
 571.428710938 657.142578125 l 1
0 657.142578125 m 1
 0 800 l 1
 142.857421875 800 l 1
 142.857421875 657.142578125 l 1
 0 657.142578125 l 1
EndSplineSet
Validated: 524293
EndChar

StartChar: N
Encoding: 78 78 13
Width: 856
Flags: HW
LayerCount: 2
Fore
SplineSet
571.428710938 -200 m 1
 571.428710938 -57.142578125 l 1
 714.286132812 -57.142578125 l 1
 714.286132812 -200 l 1
 571.428710938 -200 l 1
0 -200 m 1
 0 -57.142578125 l 1
 142.857421875 -57.142578125 l 1
 142.857421875 -200 l 1
 0 -200 l 1
571.428710938 -57.142578125 m 1
 571.428710938 85.7138671875 l 1
 714.286132812 85.7138671875 l 1
 714.286132812 -57.142578125 l 1
 571.428710938 -57.142578125 l 1
0 -57.142578125 m 1
 0 85.7138671875 l 1
 142.857421875 85.7138671875 l 1
 142.857421875 -57.142578125 l 1
 0 -57.142578125 l 1
571.428710938 85.7138671875 m 1
 571.428710938 228.571289062 l 1
 714.286132812 228.571289062 l 1
 714.286132812 85.7138671875 l 1
 571.428710938 85.7138671875 l 1
428.571289062 85.7138671875 m 1
 428.571289062 228.571289062 l 1
 571.428710938 228.571289062 l 1
 571.428710938 85.7138671875 l 1
 428.571289062 85.7138671875 l 1
0 85.7138671875 m 1
 0 228.571289062 l 1
 142.857421875 228.571289062 l 1
 142.857421875 85.7138671875 l 1
 0 85.7138671875 l 1
571.428710938 228.571289062 m 1
 571.428710938 371.428710938 l 1
 714.286132812 371.428710938 l 1
 714.286132812 228.571289062 l 1
 571.428710938 228.571289062 l 1
285.713867188 228.571289062 m 1
 285.713867188 371.428710938 l 1
 428.571289062 371.428710938 l 1
 428.571289062 228.571289062 l 1
 285.713867188 228.571289062 l 1
0 228.571289062 m 1
 0 371.428710938 l 1
 142.857421875 371.428710938 l 1
 142.857421875 228.571289062 l 1
 0 228.571289062 l 1
571.428710938 371.428710938 m 1
 571.428710938 514.286132812 l 1
 714.286132812 514.286132812 l 1
 714.286132812 371.428710938 l 1
 571.428710938 371.428710938 l 1
142.857421875 371.428710938 m 1
 142.857421875 514.286132812 l 1
 285.713867188 514.286132812 l 1
 285.713867188 371.428710938 l 1
 142.857421875 371.428710938 l 1
0 371.428710938 m 1
 0 514.286132812 l 1
 142.857421875 514.286132812 l 1
 142.857421875 371.428710938 l 1
 0 371.428710938 l 1
571.428710938 514.286132812 m 1
 571.428710938 657.142578125 l 1
 714.286132812 657.142578125 l 1
 714.286132812 514.286132812 l 1
 571.428710938 514.286132812 l 1
0 514.286132812 m 1
 0 657.142578125 l 1
 142.857421875 657.142578125 l 1
 142.857421875 514.286132812 l 1
 0 514.286132812 l 1
571.428710938 657.142578125 m 1
 571.428710938 800 l 1
 714.286132812 800 l 1
 714.286132812 657.142578125 l 1
 571.428710938 657.142578125 l 1
0 657.142578125 m 1
 0 800 l 1
 142.857421875 800 l 1
 142.857421875 657.142578125 l 1
 0 657.142578125 l 1
EndSplineSet
Validated: 524293
EndChar

StartChar: O
Encoding: 79 79 14
Width: 856
Flags: HW
LayerCount: 2
Fore
SplineSet
428.571289062 -200 m 1
 428.571289062 -57.142578125 l 1
 571.428710938 -57.142578125 l 1
 571.428710938 -200 l 1
 428.571289062 -200 l 1
285.713867188 -200 m 1
 285.713867188 -57.142578125 l 1
 428.571289062 -57.142578125 l 1
 428.571289062 -200 l 1
 285.713867188 -200 l 1
142.857421875 -200 m 1
 142.857421875 -57.142578125 l 1
 285.713867188 -57.142578125 l 1
 285.713867188 -200 l 1
 142.857421875 -200 l 1
571.428710938 -57.142578125 m 1
 571.428710938 85.7138671875 l 1
 714.286132812 85.7138671875 l 1
 714.286132812 -57.142578125 l 1
 571.428710938 -57.142578125 l 1
0 -57.142578125 m 1
 0 85.7138671875 l 1
 142.857421875 85.7138671875 l 1
 142.857421875 -57.142578125 l 1
 0 -57.142578125 l 1
571.428710938 85.7138671875 m 1
 571.428710938 228.571289062 l 1
 714.286132812 228.571289062 l 1
 714.286132812 85.7138671875 l 1
 571.428710938 85.7138671875 l 1
0 85.7138671875 m 1
 0 228.571289062 l 1
 142.857421875 228.571289062 l 1
 142.857421875 85.7138671875 l 1
 0 85.7138671875 l 1
571.428710938 228.571289062 m 1
 571.428710938 371.428710938 l 1
 714.286132812 371.428710938 l 1
 714.286132812 228.571289062 l 1
 571.428710938 228.571289062 l 1
0 228.571289062 m 1
 0 371.428710938 l 1
 142.857421875 371.428710938 l 1
 142.857421875 228.571289062 l 1
 0 228.571289062 l 1
571.428710938 371.428710938 m 1
 571.428710938 514.286132812 l 1
 714.286132812 514.286132812 l 1
 714.286132812 371.428710938 l 1
 571.428710938 371.428710938 l 1
0 371.428710938 m 1
 0 514.286132812 l 1
 142.857421875 514.286132812 l 1
 142.857421875 371.428710938 l 1
 0 371.428710938 l 1
571.428710938 514.286132812 m 1
 571.428710938 657.142578125 l 1
 714.286132812 657.142578125 l 1
 714.286132812 514.286132812 l 1
 571.428710938 514.286132812 l 1
0 514.286132812 m 1
 0 657.142578125 l 1
 142.857421875 657.142578125 l 1
 142.857421875 514.286132812 l 1
 0 514.286132812 l 1
428.571289062 657.142578125 m 1
 428.571289062 800 l 1
 571.428710938 800 l 1
 571.428710938 657.142578125 l 1
 428.571289062 657.142578125 l 1
285.713867188 657.142578125 m 1
 285.713867188 800 l 1
 428.571289062 800 l 1
 428.571289062 657.142578125 l 1
 285.713867188 657.142578125 l 1
142.857421875 657.142578125 m 1
 142.857421875 800 l 1
 285.713867188 800 l 1
 285.713867188 657.142578125 l 1
 142.857421875 657.142578125 l 1
EndSplineSet
Validated: 524293
EndChar

StartChar: P
Encoding: 80 80 15
Width: 856
Flags: HW
LayerCount: 2
Fore
SplineSet
0 -200 m 1
 0 -57.142578125 l 1
 142.857421875 -57.142578125 l 1
 142.857421875 -200 l 1
 0 -200 l 1
0 -57.142578125 m 1
 0 85.7138671875 l 1
 142.857421875 85.7138671875 l 1
 142.857421875 -57.142578125 l 1
 0 -57.142578125 l 1
0 85.7138671875 m 1
 0 228.571289062 l 1
 142.857421875 228.571289062 l 1
 142.857421875 85.7138671875 l 1
 0 85.7138671875 l 1
428.571289062 228.571289062 m 1
 428.571289062 371.428710938 l 1
 571.428710938 371.428710938 l 1
 571.428710938 228.571289062 l 1
 428.571289062 228.571289062 l 1
285.713867188 228.571289062 m 1
 285.713867188 371.428710938 l 1
 428.571289062 371.428710938 l 1
 428.571289062 228.571289062 l 1
 285.713867188 228.571289062 l 1
142.857421875 228.571289062 m 1
 142.857421875 371.428710938 l 1
 285.713867188 371.428710938 l 1
 285.713867188 228.571289062 l 1
 142.857421875 228.571289062 l 1
0 228.571289062 m 1
 0 371.428710938 l 1
 142.857421875 371.428710938 l 1
 142.857421875 228.571289062 l 1
 0 228.571289062 l 1
571.428710938 371.428710938 m 1
 571.428710938 514.286132812 l 1
 714.286132812 514.286132812 l 1
 714.286132812 371.428710938 l 1
 571.428710938 371.428710938 l 1
0 371.428710938 m 1
 0 514.286132812 l 1
 142.857421875 514.286132812 l 1
 142.857421875 371.428710938 l 1
 0 371.428710938 l 1
571.428710938 514.286132812 m 1
 571.428710938 657.142578125 l 1
 714.286132812 657.142578125 l 1
 714.286132812 514.286132812 l 1
 571.428710938 514.286132812 l 1
0 514.286132812 m 1
 0 657.142578125 l 1
 142.857421875 657.142578125 l 1
 142.857421875 514.286132812 l 1
 0 514.286132812 l 1
428.571289062 657.142578125 m 1
 428.571289062 800 l 1
 571.428710938 800 l 1
 571.428710938 657.142578125 l 1
 428.571289062 657.142578125 l 1
285.713867188 657.142578125 m 1
 285.713867188 800 l 1
 428.571289062 800 l 1
 428.571289062 657.142578125 l 1
 285.713867188 657.142578125 l 1
142.857421875 657.142578125 m 1
 142.857421875 800 l 1
 285.713867188 800 l 1
 285.713867188 657.142578125 l 1
 142.857421875 657.142578125 l 1
0 657.142578125 m 1
 0 800 l 1
 142.857421875 800 l 1
 142.857421875 657.142578125 l 1
 0 657.142578125 l 1
EndSplineSet
Validated: 524293
EndChar

StartChar: Q
Encoding: 81 81 16
Width: 856
Flags: HW
LayerCount: 2
Fore
SplineSet
571.428710938 -200 m 1
 571.428710938 -57.142578125 l 1
 714.286132812 -57.142578125 l 1
 714.286132812 -200 l 1
 571.428710938 -200 l 1
285.713867188 -200 m 1
 285.713867188 -57.142578125 l 1
 428.571289062 -57.142578125 l 1
 428.571289062 -200 l 1
 285.713867188 -200 l 1
142.857421875 -200 m 1
 142.857421875 -57.142578125 l 1
 285.713867188 -57.142578125 l 1
 285.713867188 -200 l 1
 142.857421875 -200 l 1
428.571289062 -57.142578125 m 1
 428.571289062 85.7138671875 l 1
 571.428710938 85.7138671875 l 1
 571.428710938 -57.142578125 l 1
 428.571289062 -57.142578125 l 1
0 -57.142578125 m 1
 0 85.7138671875 l 1
 142.857421875 85.7138671875 l 1
 142.857421875 -57.142578125 l 1
 0 -57.142578125 l 1
571.428710938 85.7138671875 m 1
 571.428710938 228.571289062 l 1
 714.286132812 228.571289062 l 1
 714.286132812 85.7138671875 l 1
 571.428710938 85.7138671875 l 1
285.713867188 85.7138671875 m 1
 285.713867188 228.571289062 l 1
 428.571289062 228.571289062 l 1
 428.571289062 85.7138671875 l 1
 285.713867188 85.7138671875 l 1
0 85.7138671875 m 1
 0 228.571289062 l 1
 142.857421875 228.571289062 l 1
 142.857421875 85.7138671875 l 1
 0 85.7138671875 l 1
571.428710938 228.571289062 m 1
 571.428710938 371.428710938 l 1
 714.286132812 371.428710938 l 1
 714.286132812 228.571289062 l 1
 571.428710938 228.571289062 l 1
0 228.571289062 m 1
 0 371.428710938 l 1
 142.857421875 371.428710938 l 1
 142.857421875 228.571289062 l 1
 0 228.571289062 l 1
571.428710938 371.428710938 m 1
 571.428710938 514.286132812 l 1
 714.286132812 514.286132812 l 1
 714.286132812 371.428710938 l 1
 571.428710938 371.428710938 l 1
0 371.428710938 m 1
 0 514.286132812 l 1
 142.857421875 514.286132812 l 1
 142.857421875 371.428710938 l 1
 0 371.428710938 l 1
571.428710938 514.286132812 m 1
 571.428710938 657.142578125 l 1
 714.286132812 657.142578125 l 1
 714.286132812 514.286132812 l 1
 571.428710938 514.286132812 l 1
0 514.286132812 m 1
 0 657.142578125 l 1
 142.857421875 657.142578125 l 1
 142.857421875 514.286132812 l 1
 0 514.286132812 l 1
428.571289062 657.142578125 m 1
 428.571289062 800 l 1
 571.428710938 800 l 1
 571.428710938 657.142578125 l 1
 428.571289062 657.142578125 l 1
285.713867188 657.142578125 m 1
 285.713867188 800 l 1
 428.571289062 800 l 1
 428.571289062 657.142578125 l 1
 285.713867188 657.142578125 l 1
142.857421875 657.142578125 m 1
 142.857421875 800 l 1
 285.713867188 800 l 1
 285.713867188 657.142578125 l 1
 142.857421875 657.142578125 l 1
EndSplineSet
Validated: 524293
EndChar

StartChar: R
Encoding: 82 82 17
Width: 856
Flags: HW
LayerCount: 2
Fore
SplineSet
571.428710938 -200 m 1
 571.428710938 -57.142578125 l 1
 714.286132812 -57.142578125 l 1
 714.286132812 -200 l 1
 571.428710938 -200 l 1
0 -200 m 1
 0 -57.142578125 l 1
 142.857421875 -57.142578125 l 1
 142.857421875 -200 l 1
 0 -200 l 1
428.571289062 -57.142578125 m 1
 428.571289062 85.7138671875 l 1
 571.428710938 85.7138671875 l 1
 571.428710938 -57.142578125 l 1
 428.571289062 -57.142578125 l 1
0 -57.142578125 m 1
 0 85.7138671875 l 1
 142.857421875 85.7138671875 l 1
 142.857421875 -57.142578125 l 1
 0 -57.142578125 l 1
285.713867188 85.7138671875 m 1
 285.713867188 228.571289062 l 1
 428.571289062 228.571289062 l 1
 428.571289062 85.7138671875 l 1
 285.713867188 85.7138671875 l 1
0 85.7138671875 m 1
 0 228.571289062 l 1
 142.857421875 228.571289062 l 1
 142.857421875 85.7138671875 l 1
 0 85.7138671875 l 1
428.571289062 228.571289062 m 1
 428.571289062 371.428710938 l 1
 571.428710938 371.428710938 l 1
 571.428710938 228.571289062 l 1
 428.571289062 228.571289062 l 1
285.713867188 228.571289062 m 1
 285.713867188 371.428710938 l 1
 428.571289062 371.428710938 l 1
 428.571289062 228.571289062 l 1
 285.713867188 228.571289062 l 1
142.857421875 228.571289062 m 1
 142.857421875 371.428710938 l 1
 285.713867188 371.428710938 l 1
 285.713867188 228.571289062 l 1
 142.857421875 228.571289062 l 1
0 228.571289062 m 1
 0 371.428710938 l 1
 142.857421875 371.428710938 l 1
 142.857421875 228.571289062 l 1
 0 228.571289062 l 1
571.428710938 371.428710938 m 1
 571.428710938 514.286132812 l 1
 714.286132812 514.286132812 l 1
 714.286132812 371.428710938 l 1
 571.428710938 371.428710938 l 1
0 371.428710938 m 1
 0 514.286132812 l 1
 142.857421875 514.286132812 l 1
 142.857421875 371.428710938 l 1
 0 371.428710938 l 1
571.428710938 514.286132812 m 1
 571.428710938 657.142578125 l 1
 714.286132812 657.142578125 l 1
 714.286132812 514.286132812 l 1
 571.428710938 514.286132812 l 1
0 514.286132812 m 1
 0 657.142578125 l 1
 142.857421875 657.142578125 l 1
 142.857421875 514.286132812 l 1
 0 514.286132812 l 1
428.571289062 657.142578125 m 1
 428.571289062 800 l 1
 571.428710938 800 l 1
 571.428710938 657.142578125 l 1
 428.571289062 657.142578125 l 1
285.713867188 657.142578125 m 1
 285.713867188 800 l 1
 428.571289062 800 l 1
 428.571289062 657.142578125 l 1
 285.713867188 657.142578125 l 1
142.857421875 657.142578125 m 1
 142.857421875 800 l 1
 285.713867188 800 l 1
 285.713867188 657.142578125 l 1
 142.857421875 657.142578125 l 1
0 657.142578125 m 1
 0 800 l 1
 142.857421875 800 l 1
 142.857421875 657.142578125 l 1
 0 657.142578125 l 1
EndSplineSet
Validated: 524293
EndChar

StartChar: S
Encoding: 83 83 18
Width: 856
Flags: HW
LayerCount: 2
Fore
SplineSet
428.571289062 -200 m 1
 428.571289062 -57.142578125 l 1
 571.428710938 -57.142578125 l 1
 571.428710938 -200 l 1
 428.571289062 -200 l 1
285.713867188 -200 m 1
 285.713867188 -57.142578125 l 1
 428.571289062 -57.142578125 l 1
 428.571289062 -200 l 1
 285.713867188 -200 l 1
142.857421875 -200 m 1
 142.857421875 -57.142578125 l 1
 285.713867188 -57.142578125 l 1
 285.713867188 -200 l 1
 142.857421875 -200 l 1
0 -200 m 1
 0 -57.142578125 l 1
 142.857421875 -57.142578125 l 1
 142.857421875 -200 l 1
 0 -200 l 1
571.428710938 -57.142578125 m 1
 571.428710938 85.7138671875 l 1
 714.286132812 85.7138671875 l 1
 714.286132812 -57.142578125 l 1
 571.428710938 -57.142578125 l 1
571.428710938 85.7138671875 m 1
 571.428710938 228.571289062 l 1
 714.286132812 228.571289062 l 1
 714.286132812 85.7138671875 l 1
 571.428710938 85.7138671875 l 1
428.571289062 228.571289062 m 1
 428.571289062 371.428710938 l 1
 571.428710938 371.428710938 l 1
 571.428710938 228.571289062 l 1
 428.571289062 228.571289062 l 1
285.713867188 228.571289062 m 1
 285.713867188 371.428710938 l 1
 428.571289062 371.428710938 l 1
 428.571289062 228.571289062 l 1
 285.713867188 228.571289062 l 1
142.857421875 228.571289062 m 1
 142.857421875 371.428710938 l 1
 285.713867188 371.428710938 l 1
 285.713867188 228.571289062 l 1
 142.857421875 228.571289062 l 1
0 371.428710938 m 1
 0 514.286132812 l 1
 142.857421875 514.286132812 l 1
 142.857421875 371.428710938 l 1
 0 371.428710938 l 1
0 514.286132812 m 1
 0 657.142578125 l 1
 142.857421875 657.142578125 l 1
 142.857421875 514.286132812 l 1
 0 514.286132812 l 1
571.428710938 657.142578125 m 1
 571.428710938 800 l 1
 714.286132812 800 l 1
 714.286132812 657.142578125 l 1
 571.428710938 657.142578125 l 1
428.571289062 657.142578125 m 1
 428.571289062 800 l 1
 571.428710938 800 l 1
 571.428710938 657.142578125 l 1
 428.571289062 657.142578125 l 1
285.713867188 657.142578125 m 1
 285.713867188 800 l 1
 428.571289062 800 l 1
 428.571289062 657.142578125 l 1
 285.713867188 657.142578125 l 1
142.857421875 657.142578125 m 1
 142.857421875 800 l 1
 285.713867188 800 l 1
 285.713867188 657.142578125 l 1
 142.857421875 657.142578125 l 1
EndSplineSet
Validated: 524293
EndChar

StartChar: T
Encoding: 84 84 19
Width: 856
Flags: HW
LayerCount: 2
Fore
SplineSet
285.713867188 -200 m 1
 285.713867188 -57.142578125 l 1
 428.571289062 -57.142578125 l 1
 428.571289062 -200 l 1
 285.713867188 -200 l 1
285.713867188 -57.142578125 m 1
 285.713867188 85.7138671875 l 1
 428.571289062 85.7138671875 l 1
 428.571289062 -57.142578125 l 1
 285.713867188 -57.142578125 l 1
285.713867188 85.7138671875 m 1
 285.713867188 228.571289062 l 1
 428.571289062 228.571289062 l 1
 428.571289062 85.7138671875 l 1
 285.713867188 85.7138671875 l 1
285.713867188 228.571289062 m 1
 285.713867188 371.428710938 l 1
 428.571289062 371.428710938 l 1
 428.571289062 228.571289062 l 1
 285.713867188 228.571289062 l 1
285.713867188 371.428710938 m 1
 285.713867188 514.286132812 l 1
 428.571289062 514.286132812 l 1
 428.571289062 371.428710938 l 1
 285.713867188 371.428710938 l 1
285.713867188 514.286132812 m 1
 285.713867188 657.142578125 l 1
 428.571289062 657.142578125 l 1
 428.571289062 514.286132812 l 1
 285.713867188 514.286132812 l 1
571.428710938 657.142578125 m 1
 571.428710938 800 l 1
 714.286132812 800 l 1
 714.286132812 657.142578125 l 1
 571.428710938 657.142578125 l 1
428.571289062 657.142578125 m 1
 428.571289062 800 l 1
 571.428710938 800 l 1
 571.428710938 657.142578125 l 1
 428.571289062 657.142578125 l 1
285.713867188 657.142578125 m 1
 285.713867188 800 l 1
 428.571289062 800 l 1
 428.571289062 657.142578125 l 1
 285.713867188 657.142578125 l 1
142.857421875 657.142578125 m 1
 142.857421875 800 l 1
 285.713867188 800 l 1
 285.713867188 657.142578125 l 1
 142.857421875 657.142578125 l 1
0 657.142578125 m 1
 0 800 l 1
 142.857421875 800 l 1
 142.857421875 657.142578125 l 1
 0 657.142578125 l 1
EndSplineSet
Validated: 524293
EndChar

StartChar: U
Encoding: 85 85 20
Width: 856
Flags: HW
LayerCount: 2
Fore
SplineSet
428.571289062 -200 m 1
 428.571289062 -57.142578125 l 1
 571.428710938 -57.142578125 l 1
 571.428710938 -200 l 1
 428.571289062 -200 l 1
285.713867188 -200 m 1
 285.713867188 -57.142578125 l 1
 428.571289062 -57.142578125 l 1
 428.571289062 -200 l 1
 285.713867188 -200 l 1
142.857421875 -200 m 1
 142.857421875 -57.142578125 l 1
 285.713867188 -57.142578125 l 1
 285.713867188 -200 l 1
 142.857421875 -200 l 1
571.428710938 -57.142578125 m 1
 571.428710938 85.7138671875 l 1
 714.286132812 85.7138671875 l 1
 714.286132812 -57.142578125 l 1
 571.428710938 -57.142578125 l 1
0 -57.142578125 m 1
 0 85.7138671875 l 1
 142.857421875 85.7138671875 l 1
 142.857421875 -57.142578125 l 1
 0 -57.142578125 l 1
571.428710938 85.7138671875 m 1
 571.428710938 228.571289062 l 1
 714.286132812 228.571289062 l 1
 714.286132812 85.7138671875 l 1
 571.428710938 85.7138671875 l 1
0 85.7138671875 m 1
 0 228.571289062 l 1
 142.857421875 228.571289062 l 1
 142.857421875 85.7138671875 l 1
 0 85.7138671875 l 1
571.428710938 228.571289062 m 1
 571.428710938 371.428710938 l 1
 714.286132812 371.428710938 l 1
 714.286132812 228.571289062 l 1
 571.428710938 228.571289062 l 1
0 228.571289062 m 1
 0 371.428710938 l 1
 142.857421875 371.428710938 l 1
 142.857421875 228.571289062 l 1
 0 228.571289062 l 1
571.428710938 371.428710938 m 1
 571.428710938 514.286132812 l 1
 714.286132812 514.286132812 l 1
 714.286132812 371.428710938 l 1
 571.428710938 371.428710938 l 1
0 371.428710938 m 1
 0 514.286132812 l 1
 142.857421875 514.286132812 l 1
 142.857421875 371.428710938 l 1
 0 371.428710938 l 1
571.428710938 514.286132812 m 1
 571.428710938 657.142578125 l 1
 714.286132812 657.142578125 l 1
 714.286132812 514.286132812 l 1
 571.428710938 514.286132812 l 1
0 514.286132812 m 1
 0 657.142578125 l 1
 142.857421875 657.142578125 l 1
 142.857421875 514.286132812 l 1
 0 514.286132812 l 1
571.428710938 657.142578125 m 1
 571.428710938 800 l 1
 714.286132812 800 l 1
 714.286132812 657.142578125 l 1
 571.428710938 657.142578125 l 1
0 657.142578125 m 1
 0 800 l 1
 142.857421875 800 l 1
 142.857421875 657.142578125 l 1
 0 657.142578125 l 1
EndSplineSet
Validated: 524293
EndChar

StartChar: V
Encoding: 86 86 21
Width: 856
Flags: HW
LayerCount: 2
Fore
SplineSet
285.713867188 -200 m 1
 285.713867188 -57.142578125 l 1
 428.571289062 -57.142578125 l 1
 428.571289062 -200 l 1
 285.713867188 -200 l 1
428.571289062 -57.142578125 m 1
 428.571289062 85.7138671875 l 1
 571.428710938 85.7138671875 l 1
 571.428710938 -57.142578125 l 1
 428.571289062 -57.142578125 l 1
142.857421875 -57.142578125 m 1
 142.857421875 85.7138671875 l 1
 285.713867188 85.7138671875 l 1
 285.713867188 -57.142578125 l 1
 142.857421875 -57.142578125 l 1
428.571289062 85.7138671875 m 1
 428.571289062 228.571289062 l 1
 571.428710938 228.571289062 l 1
 571.428710938 85.7138671875 l 1
 428.571289062 85.7138671875 l 1
142.857421875 85.7138671875 m 1
 142.857421875 228.571289062 l 1
 285.713867188 228.571289062 l 1
 285.713867188 85.7138671875 l 1
 142.857421875 85.7138671875 l 1
571.428710938 228.571289062 m 1
 571.428710938 371.428710938 l 1
 714.286132812 371.428710938 l 1
 714.286132812 228.571289062 l 1
 571.428710938 228.571289062 l 1
0 228.571289062 m 1
 0 371.428710938 l 1
 142.857421875 371.428710938 l 1
 142.857421875 228.571289062 l 1
 0 228.571289062 l 1
571.428710938 371.428710938 m 1
 571.428710938 514.286132812 l 1
 714.286132812 514.286132812 l 1
 714.286132812 371.428710938 l 1
 571.428710938 371.428710938 l 1
0 371.428710938 m 1
 0 514.286132812 l 1
 142.857421875 514.286132812 l 1
 142.857421875 371.428710938 l 1
 0 371.428710938 l 1
571.428710938 514.286132812 m 1
 571.428710938 657.142578125 l 1
 714.286132812 657.142578125 l 1
 714.286132812 514.286132812 l 1
 571.428710938 514.286132812 l 1
0 514.286132812 m 1
 0 657.142578125 l 1
 142.857421875 657.142578125 l 1
 142.857421875 514.286132812 l 1
 0 514.286132812 l 1
571.428710938 657.142578125 m 1
 571.428710938 800 l 1
 714.286132812 800 l 1
 714.286132812 657.142578125 l 1
 571.428710938 657.142578125 l 1
0 657.142578125 m 1
 0 800 l 1
 142.857421875 800 l 1
 142.857421875 657.142578125 l 1
 0 657.142578125 l 1
EndSplineSet
Validated: 524293
EndChar

StartChar: W
Encoding: 87 87 22
Width: 856
Flags: HW
LayerCount: 2
Fore
SplineSet
428.571289062 -200 m 1
 428.571289062 -57.142578125 l 1
 571.428710938 -57.142578125 l 1
 571.428710938 -200 l 1
 428.571289062 -200 l 1
142.857421875 -200 m 1
 142.857421875 -57.142578125 l 1
 285.713867188 -57.142578125 l 1
 285.713867188 -200 l 1
 142.857421875 -200 l 1
571.428710938 -57.142578125 m 1
 571.428710938 85.7138671875 l 1
 714.286132812 85.7138671875 l 1
 714.286132812 -57.142578125 l 1
 571.428710938 -57.142578125 l 1
285.713867188 -57.142578125 m 1
 285.713867188 85.7138671875 l 1
 428.571289062 85.7138671875 l 1
 428.571289062 -57.142578125 l 1
 285.713867188 -57.142578125 l 1
0 -57.142578125 m 1
 0 85.7138671875 l 1
 142.857421875 85.7138671875 l 1
 142.857421875 -57.142578125 l 1
 0 -57.142578125 l 1
571.428710938 85.7138671875 m 1
 571.428710938 228.571289062 l 1
 714.286132812 228.571289062 l 1
 714.286132812 85.7138671875 l 1
 571.428710938 85.7138671875 l 1
285.713867188 85.7138671875 m 1
 285.713867188 228.571289062 l 1
 428.571289062 228.571289062 l 1
 428.571289062 85.7138671875 l 1
 285.713867188 85.7138671875 l 1
0 85.7138671875 m 1
 0 228.571289062 l 1
 142.857421875 228.571289062 l 1
 142.857421875 85.7138671875 l 1
 0 85.7138671875 l 1
571.428710938 228.571289062 m 1
 571.428710938 371.428710938 l 1
 714.286132812 371.428710938 l 1
 714.286132812 228.571289062 l 1
 571.428710938 228.571289062 l 1
285.713867188 228.571289062 m 1
 285.713867188 371.428710938 l 1
 428.571289062 371.428710938 l 1
 428.571289062 228.571289062 l 1
 285.713867188 228.571289062 l 1
0 228.571289062 m 1
 0 371.428710938 l 1
 142.857421875 371.428710938 l 1
 142.857421875 228.571289062 l 1
 0 228.571289062 l 1
571.428710938 371.428710938 m 1
 571.428710938 514.286132812 l 1
 714.286132812 514.286132812 l 1
 714.286132812 371.428710938 l 1
 571.428710938 371.428710938 l 1
0 371.428710938 m 1
 0 514.286132812 l 1
 142.857421875 514.286132812 l 1
 142.857421875 371.428710938 l 1
 0 371.428710938 l 1
571.428710938 514.286132812 m 1
 571.428710938 657.142578125 l 1
 714.286132812 657.142578125 l 1
 714.286132812 514.286132812 l 1
 571.428710938 514.286132812 l 1
0 514.286132812 m 1
 0 657.142578125 l 1
 142.857421875 657.142578125 l 1
 142.857421875 514.286132812 l 1
 0 514.286132812 l 1
571.428710938 657.142578125 m 1
 571.428710938 800 l 1
 714.286132812 800 l 1
 714.286132812 657.142578125 l 1
 571.428710938 657.142578125 l 1
0 657.142578125 m 1
 0 800 l 1
 142.857421875 800 l 1
 142.857421875 657.142578125 l 1
 0 657.142578125 l 1
EndSplineSet
Validated: 524293
EndChar

StartChar: X
Encoding: 88 88 23
Width: 856
Flags: HW
LayerCount: 2
Fore
SplineSet
571.428710938 -200 m 1
 571.428710938 -57.142578125 l 1
 714.286132812 -57.142578125 l 1
 714.286132812 -200 l 1
 571.428710938 -200 l 1
0 -200 m 1
 0 -57.142578125 l 1
 142.857421875 -57.142578125 l 1
 142.857421875 -200 l 1
 0 -200 l 1
571.428710938 -57.142578125 m 1
 571.428710938 85.7138671875 l 1
 714.286132812 85.7138671875 l 1
 714.286132812 -57.142578125 l 1
 571.428710938 -57.142578125 l 1
0 -57.142578125 m 1
 0 85.7138671875 l 1
 142.857421875 85.7138671875 l 1
 142.857421875 -57.142578125 l 1
 0 -57.142578125 l 1
428.571289062 85.7138671875 m 1
 428.571289062 228.571289062 l 1
 571.428710938 228.571289062 l 1
 571.428710938 85.7138671875 l 1
 428.571289062 85.7138671875 l 1
142.857421875 85.7138671875 m 1
 142.857421875 228.571289062 l 1
 285.713867188 228.571289062 l 1
 285.713867188 85.7138671875 l 1
 142.857421875 85.7138671875 l 1
285.713867188 228.571289062 m 1
 285.713867188 371.428710938 l 1
 428.571289062 371.428710938 l 1
 428.571289062 228.571289062 l 1
 285.713867188 228.571289062 l 1
428.571289062 371.428710938 m 1
 428.571289062 514.286132812 l 1
 571.428710938 514.286132812 l 1
 571.428710938 371.428710938 l 1
 428.571289062 371.428710938 l 1
142.857421875 371.428710938 m 1
 142.857421875 514.286132812 l 1
 285.713867188 514.286132812 l 1
 285.713867188 371.428710938 l 1
 142.857421875 371.428710938 l 1
571.428710938 514.286132812 m 1
 571.428710938 657.142578125 l 1
 714.286132812 657.142578125 l 1
 714.286132812 514.286132812 l 1
 571.428710938 514.286132812 l 1
0 514.286132812 m 1
 0 657.142578125 l 1
 142.857421875 657.142578125 l 1
 142.857421875 514.286132812 l 1
 0 514.286132812 l 1
571.428710938 657.142578125 m 1
 571.428710938 800 l 1
 714.286132812 800 l 1
 714.286132812 657.142578125 l 1
 571.428710938 657.142578125 l 1
0 657.142578125 m 1
 0 800 l 1
 142.857421875 800 l 1
 142.857421875 657.142578125 l 1
 0 657.142578125 l 1
EndSplineSet
Validated: 524293
EndChar

StartChar: Y
Encoding: 89 89 24
Width: 856
Flags: HW
LayerCount: 2
Fore
SplineSet
285.713867188 -200 m 1
 285.713867188 -57.142578125 l 1
 428.571289062 -57.142578125 l 1
 428.571289062 -200 l 1
 285.713867188 -200 l 1
285.713867188 -57.142578125 m 1
 285.713867188 85.7138671875 l 1
 428.571289062 85.7138671875 l 1
 428.571289062 -57.142578125 l 1
 285.713867188 -57.142578125 l 1
285.713867188 85.7138671875 m 1
 285.713867188 228.571289062 l 1
 428.571289062 228.571289062 l 1
 428.571289062 85.7138671875 l 1
 285.713867188 85.7138671875 l 1
428.571289062 228.571289062 m 1
 428.571289062 371.428710938 l 1
 571.428710938 371.428710938 l 1
 571.428710938 228.571289062 l 1
 428.571289062 228.571289062 l 1
142.857421875 228.571289062 m 1
 142.857421875 371.428710938 l 1
 285.713867188 371.428710938 l 1
 285.713867188 228.571289062 l 1
 142.857421875 228.571289062 l 1
571.428710938 371.428710938 m 1
 571.428710938 514.286132812 l 1
 714.286132812 514.286132812 l 1
 714.286132812 371.428710938 l 1
 571.428710938 371.428710938 l 1
0 371.428710938 m 1
 0 514.286132812 l 1
 142.857421875 514.286132812 l 1
 142.857421875 371.428710938 l 1
 0 371.428710938 l 1
571.428710938 514.286132812 m 1
 571.428710938 657.142578125 l 1
 714.286132812 657.142578125 l 1
 714.286132812 514.286132812 l 1
 571.428710938 514.286132812 l 1
0 514.286132812 m 1
 0 657.142578125 l 1
 142.857421875 657.142578125 l 1
 142.857421875 514.286132812 l 1
 0 514.286132812 l 1
571.428710938 657.142578125 m 1
 571.428710938 800 l 1
 714.286132812 800 l 1
 714.286132812 657.142578125 l 1
 571.428710938 657.142578125 l 1
0 657.142578125 m 1
 0 800 l 1
 142.857421875 800 l 1
 142.857421875 657.142578125 l 1
 0 657.142578125 l 1
EndSplineSet
Validated: 524293
EndChar

StartChar: Z
Encoding: 90 90 25
Width: 856
Flags: HW
LayerCount: 2
Fore
SplineSet
571.428710938 -200 m 1
 571.428710938 -57.142578125 l 1
 714.286132812 -57.142578125 l 1
 714.286132812 -200 l 1
 571.428710938 -200 l 1
428.571289062 -200 m 1
 428.571289062 -57.142578125 l 1
 571.428710938 -57.142578125 l 1
 571.428710938 -200 l 1
 428.571289062 -200 l 1
285.713867188 -200 m 1
 285.713867188 -57.142578125 l 1
 428.571289062 -57.142578125 l 1
 428.571289062 -200 l 1
 285.713867188 -200 l 1
142.857421875 -200 m 1
 142.857421875 -57.142578125 l 1
 285.713867188 -57.142578125 l 1
 285.713867188 -200 l 1
 142.857421875 -200 l 1
0 -200 m 1
 0 -57.142578125 l 1
 142.857421875 -57.142578125 l 1
 142.857421875 -200 l 1
 0 -200 l 1
0 -57.142578125 m 1
 0 85.7138671875 l 1
 142.857421875 85.7138671875 l 1
 142.857421875 -57.142578125 l 1
 0 -57.142578125 l 1
142.857421875 85.7138671875 m 1
 142.857421875 228.571289062 l 1
 285.713867188 228.571289062 l 1
 285.713867188 85.7138671875 l 1
 142.857421875 85.7138671875 l 1
285.713867188 228.571289062 m 1
 285.713867188 371.428710938 l 1
 428.571289062 371.428710938 l 1
 428.571289062 228.571289062 l 1
 285.713867188 228.571289062 l 1
428.571289062 371.428710938 m 1
 428.571289062 514.286132812 l 1
 571.428710938 514.286132812 l 1
 571.428710938 371.428710938 l 1
 428.571289062 371.428710938 l 1
571.428710938 514.286132812 m 1
 571.428710938 657.142578125 l 1
 714.286132812 657.142578125 l 1
 714.286132812 514.286132812 l 1
 571.428710938 514.286132812 l 1
571.428710938 657.142578125 m 1
 571.428710938 800 l 1
 714.286132812 800 l 1
 714.286132812 657.142578125 l 1
 571.428710938 657.142578125 l 1
428.571289062 657.142578125 m 1
 428.571289062 800 l 1
 571.428710938 800 l 1
 571.428710938 657.142578125 l 1
 428.571289062 657.142578125 l 1
285.713867188 657.142578125 m 1
 285.713867188 800 l 1
 428.571289062 800 l 1
 428.571289062 657.142578125 l 1
 285.713867188 657.142578125 l 1
142.857421875 657.142578125 m 1
 142.857421875 800 l 1
 285.713867188 800 l 1
 285.713867188 657.142578125 l 1
 142.857421875 657.142578125 l 1
0 657.142578125 m 1
 0 800 l 1
 142.857421875 800 l 1
 142.857421875 657.142578125 l 1
 0 657.142578125 l 1
EndSplineSet
Validated: 524293
EndChar

StartChar: period
Encoding: 46 46 26
Width: 429
Flags: HW
LayerCount: 2
Fore
SplineSet
286 -200 m 1
 286 117.333007812 l 1
 286 117.333007812 l 1
 286 -200 l 1
 286 -200 l 1
0 -200 m 1
 0 117.333007812 l 1
 286 117.333007812 l 1
 286 -200 l 1
 0 -200 l 1
286 117.333007812 m 1
 286 117.333007812 l 1
 286 117.333007812 l 1
 286 117.333007812 l 1
 286 117.333007812 l 1
0 117.333007812 m 1
 0 117.333007812 l 1
 286 117.333007812 l 1
 286 117.333007812 l 1
 0 117.333007812 l 1
EndSplineSet
Validated: 524293
EndChar

StartChar: zero
Encoding: 48 48 27
Width: 856
Flags: HW
LayerCount: 2
Fore
SplineSet
428.571289062 -200 m 1
 428.571289062 -57.142578125 l 1
 571.428710938 -57.142578125 l 1
 571.428710938 -200 l 1
 428.571289062 -200 l 1
285.713867188 -200 m 1
 285.713867188 -57.142578125 l 1
 428.571289062 -57.142578125 l 1
 428.571289062 -200 l 1
 285.713867188 -200 l 1
142.857421875 -200 m 1
 142.857421875 -57.142578125 l 1
 285.713867188 -57.142578125 l 1
 285.713867188 -200 l 1
 142.857421875 -200 l 1
571.428710938 -57.142578125 m 1
 571.428710938 85.7138671875 l 1
 714.286132812 85.7138671875 l 1
 714.286132812 -57.142578125 l 1
 571.428710938 -57.142578125 l 1
0 -57.142578125 m 1
 0 85.7138671875 l 1
 142.857421875 85.7138671875 l 1
 142.857421875 -57.142578125 l 1
 0 -57.142578125 l 1
571.428710938 85.7138671875 m 1
 571.428710938 228.571289062 l 1
 714.286132812 228.571289062 l 1
 714.286132812 85.7138671875 l 1
 571.428710938 85.7138671875 l 1
142.857421875 85.7138671875 m 1
 142.857421875 228.571289062 l 1
 285.713867188 228.571289062 l 1
 285.713867188 85.7138671875 l 1
 142.857421875 85.7138671875 l 1
0 85.7138671875 m 1
 0 228.571289062 l 1
 142.857421875 228.571289062 l 1
 142.857421875 85.7138671875 l 1
 0 85.7138671875 l 1
571.428710938 228.571289062 m 1
 571.428710938 371.428710938 l 1
 714.286132812 371.428710938 l 1
 714.286132812 228.571289062 l 1
 571.428710938 228.571289062 l 1
285.713867188 228.571289062 m 1
 285.713867188 371.428710938 l 1
 428.571289062 371.428710938 l 1
 428.571289062 228.571289062 l 1
 285.713867188 228.571289062 l 1
0 228.571289062 m 1
 0 371.428710938 l 1
 142.857421875 371.428710938 l 1
 142.857421875 228.571289062 l 1
 0 228.571289062 l 1
571.428710938 371.428710938 m 1
 571.428710938 514.286132812 l 1
 714.286132812 514.286132812 l 1
 714.286132812 371.428710938 l 1
 571.428710938 371.428710938 l 1
428.571289062 371.428710938 m 1
 428.571289062 514.286132812 l 1
 571.428710938 514.286132812 l 1
 571.428710938 371.428710938 l 1
 428.571289062 371.428710938 l 1
0 371.428710938 m 1
 0 514.286132812 l 1
 142.857421875 514.286132812 l 1
 142.857421875 371.428710938 l 1
 0 371.428710938 l 1
571.428710938 514.286132812 m 1
 571.428710938 657.142578125 l 1
 714.286132812 657.142578125 l 1
 714.286132812 514.286132812 l 1
 571.428710938 514.286132812 l 1
0 514.286132812 m 1
 0 657.142578125 l 1
 142.857421875 657.142578125 l 1
 142.857421875 514.286132812 l 1
 0 514.286132812 l 1
428.571289062 657.142578125 m 1
 428.571289062 800 l 1
 571.428710938 800 l 1
 571.428710938 657.142578125 l 1
 428.571289062 657.142578125 l 1
285.713867188 657.142578125 m 1
 285.713867188 800 l 1
 428.571289062 800 l 1
 428.571289062 657.142578125 l 1
 285.713867188 657.142578125 l 1
142.857421875 657.142578125 m 1
 142.857421875 800 l 1
 285.713867188 800 l 1
 285.713867188 657.142578125 l 1
 142.857421875 657.142578125 l 1
EndSplineSet
Validated: 524293
EndChar

StartChar: one
Encoding: 49 49 28
Width: 573
Flags: HW
LayerCount: 2
Fore
SplineSet
285.713867188 -200 m 1
 285.713867188 -57.142578125 l 1
 428.571289062 -57.142578125 l 1
 428.571289062 -200 l 1
 285.713867188 -200 l 1
142.857421875 -200 m 1
 142.857421875 -57.142578125 l 1
 285.713867188 -57.142578125 l 1
 285.713867188 -200 l 1
 142.857421875 -200 l 1
0 -200 m 1
 0 -57.142578125 l 1
 142.857421875 -57.142578125 l 1
 142.857421875 -200 l 1
 0 -200 l 1
142.857421875 -57.142578125 m 1
 142.857421875 85.7138671875 l 1
 285.713867188 85.7138671875 l 1
 285.713867188 -57.142578125 l 1
 142.857421875 -57.142578125 l 1
142.857421875 85.7138671875 m 1
 142.857421875 228.571289062 l 1
 285.713867188 228.571289062 l 1
 285.713867188 85.7138671875 l 1
 142.857421875 85.7138671875 l 1
142.857421875 228.571289062 m 1
 142.857421875 371.428710938 l 1
 285.713867188 371.428710938 l 1
 285.713867188 228.571289062 l 1
 142.857421875 228.571289062 l 1
142.857421875 371.428710938 m 1
 142.857421875 514.286132812 l 1
 285.713867188 514.286132812 l 1
 285.713867188 371.428710938 l 1
 142.857421875 371.428710938 l 1
142.857421875 514.286132812 m 1
 142.857421875 657.142578125 l 1
 285.713867188 657.142578125 l 1
 285.713867188 514.286132812 l 1
 142.857421875 514.286132812 l 1
0 514.286132812 m 1
 0 657.142578125 l 1
 142.857421875 657.142578125 l 1
 142.857421875 514.286132812 l 1
 0 514.286132812 l 1
142.857421875 657.142578125 m 1
 142.857421875 800 l 1
 285.713867188 800 l 1
 285.713867188 657.142578125 l 1
 142.857421875 657.142578125 l 1
EndSplineSet
Validated: 524293
EndChar

StartChar: two
Encoding: 50 50 29
Width: 858
Flags: HW
LayerCount: 2
Fore
SplineSet
571.428710938 -200 m 1
 571.428710938 -57.142578125 l 1
 714.286132812 -57.142578125 l 1
 714.286132812 -200 l 1
 571.428710938 -200 l 1
428.571289062 -200 m 1
 428.571289062 -57.142578125 l 1
 571.428710938 -57.142578125 l 1
 571.428710938 -200 l 1
 428.571289062 -200 l 1
285.713867188 -200 m 1
 285.713867188 -57.142578125 l 1
 428.571289062 -57.142578125 l 1
 428.571289062 -200 l 1
 285.713867188 -200 l 1
142.857421875 -200 m 1
 142.857421875 -57.142578125 l 1
 285.713867188 -57.142578125 l 1
 285.713867188 -200 l 1
 142.857421875 -200 l 1
0 -200 m 1
 0 -57.142578125 l 1
 142.857421875 -57.142578125 l 1
 142.857421875 -200 l 1
 0 -200 l 1
142.857421875 -57.142578125 m 1
 142.857421875 85.7138671875 l 1
 285.713867188 85.7138671875 l 1
 285.713867188 -57.142578125 l 1
 142.857421875 -57.142578125 l 1
285.713867188 85.7138671875 m 1
 285.713867188 228.571289062 l 1
 428.571289062 228.571289062 l 1
 428.571289062 85.7138671875 l 1
 285.713867188 85.7138671875 l 1
428.571289062 228.571289062 m 1
 428.571289062 371.428710938 l 1
 571.428710938 371.428710938 l 1
 571.428710938 228.571289062 l 1
 428.571289062 228.571289062 l 1
571.428710938 371.428710938 m 1
 571.428710938 514.286132812 l 1
 714.286132812 514.286132812 l 1
 714.286132812 371.428710938 l 1
 571.428710938 371.428710938 l 1
571.428710938 514.286132812 m 1
 571.428710938 657.142578125 l 1
 714.286132812 657.142578125 l 1
 714.286132812 514.286132812 l 1
 571.428710938 514.286132812 l 1
0 514.286132812 m 1
 0 657.142578125 l 1
 142.857421875 657.142578125 l 1
 142.857421875 514.286132812 l 1
 0 514.286132812 l 1
428.571289062 657.142578125 m 1
 428.571289062 800 l 1
 571.428710938 800 l 1
 571.428710938 657.142578125 l 1
 428.571289062 657.142578125 l 1
285.713867188 657.142578125 m 1
 285.713867188 800 l 1
 428.571289062 800 l 1
 428.571289062 657.142578125 l 1
 285.713867188 657.142578125 l 1
142.857421875 657.142578125 m 1
 142.857421875 800 l 1
 285.713867188 800 l 1
 285.713867188 657.142578125 l 1
 142.857421875 657.142578125 l 1
EndSplineSet
Validated: 524293
EndChar

StartChar: three
Encoding: 51 51 30
Width: 856
Flags: HW
LayerCount: 2
Fore
SplineSet
428.571289062 -200 m 1
 428.571289062 -57.142578125 l 1
 571.428710938 -57.142578125 l 1
 571.428710938 -200 l 1
 428.571289062 -200 l 1
285.713867188 -200 m 1
 285.713867188 -57.142578125 l 1
 428.571289062 -57.142578125 l 1
 428.571289062 -200 l 1
 285.713867188 -200 l 1
142.857421875 -200 m 1
 142.857421875 -57.142578125 l 1
 285.713867188 -57.142578125 l 1
 285.713867188 -200 l 1
 142.857421875 -200 l 1
571.428710938 -57.142578125 m 1
 571.428710938 85.7138671875 l 1
 714.286132812 85.7138671875 l 1
 714.286132812 -57.142578125 l 1
 571.428710938 -57.142578125 l 1
0 -57.142578125 m 1
 0 85.7138671875 l 1
 142.857421875 85.7138671875 l 1
 142.857421875 -57.142578125 l 1
 0 -57.142578125 l 1
571.428710938 85.7138671875 m 1
 571.428710938 228.571289062 l 1
 714.286132812 228.571289062 l 1
 714.286132812 85.7138671875 l 1
 571.428710938 85.7138671875 l 1
428.571289062 228.571289062 m 1
 428.571289062 371.428710938 l 1
 571.428710938 371.428710938 l 1
 571.428710938 228.571289062 l 1
 428.571289062 228.571289062 l 1
285.713867188 371.428710938 m 1
 285.713867188 514.286132812 l 1
 428.571289062 514.286132812 l 1
 428.571289062 371.428710938 l 1
 285.713867188 371.428710938 l 1
428.571289062 514.286132812 m 1
 428.571289062 657.142578125 l 1
 571.428710938 657.142578125 l 1
 571.428710938 514.286132812 l 1
 428.571289062 514.286132812 l 1
571.428710938 657.142578125 m 1
 571.428710938 800 l 1
 714.286132812 800 l 1
 714.286132812 657.142578125 l 1
 571.428710938 657.142578125 l 1
428.571289062 657.142578125 m 1
 428.571289062 800 l 1
 571.428710938 800 l 1
 571.428710938 657.142578125 l 1
 428.571289062 657.142578125 l 1
285.713867188 657.142578125 m 1
 285.713867188 800 l 1
 428.571289062 800 l 1
 428.571289062 657.142578125 l 1
 285.713867188 657.142578125 l 1
142.857421875 657.142578125 m 1
 142.857421875 800 l 1
 285.713867188 800 l 1
 285.713867188 657.142578125 l 1
 142.857421875 657.142578125 l 1
0 657.142578125 m 1
 0 800 l 1
 142.857421875 800 l 1
 142.857421875 657.142578125 l 1
 0 657.142578125 l 1
EndSplineSet
Validated: 524293
EndChar

StartChar: four
Encoding: 52 52 31
Width: 856
Flags: HW
LayerCount: 2
Fore
SplineSet
428.571289062 -200 m 1
 428.571289062 -57.142578125 l 1
 571.428710938 -57.142578125 l 1
 571.428710938 -200 l 1
 428.571289062 -200 l 1
428.571289062 -57.142578125 m 1
 428.571289062 85.7138671875 l 1
 571.428710938 85.7138671875 l 1
 571.428710938 -57.142578125 l 1
 428.571289062 -57.142578125 l 1
571.428710938 85.7138671875 m 1
 571.428710938 228.571289062 l 1
 714.286132812 228.571289062 l 1
 714.286132812 85.7138671875 l 1
 571.428710938 85.7138671875 l 1
428.571289062 85.7138671875 m 1
 428.571289062 228.571289062 l 1
 571.428710938 228.571289062 l 1
 571.428710938 85.7138671875 l 1
 428.571289062 85.7138671875 l 1
285.713867188 85.7138671875 m 1
 285.713867188 228.571289062 l 1
 428.571289062 228.571289062 l 1
 428.571289062 85.7138671875 l 1
 285.713867188 85.7138671875 l 1
142.857421875 85.7138671875 m 1
 142.857421875 228.571289062 l 1
 285.713867188 228.571289062 l 1
 285.713867188 85.7138671875 l 1
 142.857421875 85.7138671875 l 1
0 85.7138671875 m 1
 0 228.571289062 l 1
 142.857421875 228.571289062 l 1
 142.857421875 85.7138671875 l 1
 0 85.7138671875 l 1
428.571289062 228.571289062 m 1
 428.571289062 371.428710938 l 1
 571.428710938 371.428710938 l 1
 571.428710938 228.571289062 l 1
 428.571289062 228.571289062 l 1
0 228.571289062 m 1
 0 371.428710938 l 1
 142.857421875 371.428710938 l 1
 142.857421875 228.571289062 l 1
 0 228.571289062 l 1
428.571289062 371.428710938 m 1
 428.571289062 514.286132812 l 1
 571.428710938 514.286132812 l 1
 571.428710938 371.428710938 l 1
 428.571289062 371.428710938 l 1
142.857421875 371.428710938 m 1
 142.857421875 514.286132812 l 1
 285.713867188 514.286132812 l 1
 285.713867188 371.428710938 l 1
 142.857421875 371.428710938 l 1
428.571289062 514.286132812 m 1
 428.571289062 657.142578125 l 1
 571.428710938 657.142578125 l 1
 571.428710938 514.286132812 l 1
 428.571289062 514.286132812 l 1
285.713867188 514.286132812 m 1
 285.713867188 657.142578125 l 1
 428.571289062 657.142578125 l 1
 428.571289062 514.286132812 l 1
 285.713867188 514.286132812 l 1
428.571289062 657.142578125 m 1
 428.571289062 800 l 1
 571.428710938 800 l 1
 571.428710938 657.142578125 l 1
 428.571289062 657.142578125 l 1
EndSplineSet
Validated: 524293
EndChar

StartChar: five
Encoding: 53 53 32
Width: 856
Flags: HW
LayerCount: 2
Fore
SplineSet
428.571289062 -200 m 1
 428.571289062 -57.142578125 l 1
 571.428710938 -57.142578125 l 1
 571.428710938 -200 l 1
 428.571289062 -200 l 1
285.713867188 -200 m 1
 285.713867188 -57.142578125 l 1
 428.571289062 -57.142578125 l 1
 428.571289062 -200 l 1
 285.713867188 -200 l 1
142.857421875 -200 m 1
 142.857421875 -57.142578125 l 1
 285.713867188 -57.142578125 l 1
 285.713867188 -200 l 1
 142.857421875 -200 l 1
571.428710938 -57.142578125 m 1
 571.428710938 85.7138671875 l 1
 714.286132812 85.7138671875 l 1
 714.286132812 -57.142578125 l 1
 571.428710938 -57.142578125 l 1
0 -57.142578125 m 1
 0 85.7138671875 l 1
 142.857421875 85.7138671875 l 1
 142.857421875 -57.142578125 l 1
 0 -57.142578125 l 1
571.428710938 85.7138671875 m 1
 571.428710938 228.571289062 l 1
 714.286132812 228.571289062 l 1
 714.286132812 85.7138671875 l 1
 571.428710938 85.7138671875 l 1
571.428710938 228.571289062 m 1
 571.428710938 371.428710938 l 1
 714.286132812 371.428710938 l 1
 714.286132812 228.571289062 l 1
 571.428710938 228.571289062 l 1
428.571289062 371.428710938 m 1
 428.571289062 514.286132812 l 1
 571.428710938 514.286132812 l 1
 571.428710938 371.428710938 l 1
 428.571289062 371.428710938 l 1
285.713867188 371.428710938 m 1
 285.713867188 514.286132812 l 1
 428.571289062 514.286132812 l 1
 428.571289062 371.428710938 l 1
 285.713867188 371.428710938 l 1
142.857421875 371.428710938 m 1
 142.857421875 514.286132812 l 1
 285.713867188 514.286132812 l 1
 285.713867188 371.428710938 l 1
 142.857421875 371.428710938 l 1
0 371.428710938 m 1
 0 514.286132812 l 1
 142.857421875 514.286132812 l 1
 142.857421875 371.428710938 l 1
 0 371.428710938 l 1
0 514.286132812 m 1
 0 657.142578125 l 1
 142.857421875 657.142578125 l 1
 142.857421875 514.286132812 l 1
 0 514.286132812 l 1
571.428710938 657.142578125 m 1
 571.428710938 800 l 1
 714.286132812 800 l 1
 714.286132812 657.142578125 l 1
 571.428710938 657.142578125 l 1
428.571289062 657.142578125 m 1
 428.571289062 800 l 1
 571.428710938 800 l 1
 571.428710938 657.142578125 l 1
 428.571289062 657.142578125 l 1
285.713867188 657.142578125 m 1
 285.713867188 800 l 1
 428.571289062 800 l 1
 428.571289062 657.142578125 l 1
 285.713867188 657.142578125 l 1
142.857421875 657.142578125 m 1
 142.857421875 800 l 1
 285.713867188 800 l 1
 285.713867188 657.142578125 l 1
 142.857421875 657.142578125 l 1
0 657.142578125 m 1
 0 800 l 1
 142.857421875 800 l 1
 142.857421875 657.142578125 l 1
 0 657.142578125 l 1
EndSplineSet
Validated: 524293
EndChar

StartChar: six
Encoding: 54 54 33
Width: 856
Flags: HW
LayerCount: 2
Fore
SplineSet
428.571289062 -200 m 1
 428.571289062 -57.142578125 l 1
 571.428710938 -57.142578125 l 1
 571.428710938 -200 l 1
 428.571289062 -200 l 1
285.713867188 -200 m 1
 285.713867188 -57.142578125 l 1
 428.571289062 -57.142578125 l 1
 428.571289062 -200 l 1
 285.713867188 -200 l 1
142.857421875 -200 m 1
 142.857421875 -57.142578125 l 1
 285.713867188 -57.142578125 l 1
 285.713867188 -200 l 1
 142.857421875 -200 l 1
571.428710938 -57.142578125 m 1
 571.428710938 85.7138671875 l 1
 714.286132812 85.7138671875 l 1
 714.286132812 -57.142578125 l 1
 571.428710938 -57.142578125 l 1
0 -57.142578125 m 1
 0 85.7138671875 l 1
 142.857421875 85.7138671875 l 1
 142.857421875 -57.142578125 l 1
 0 -57.142578125 l 1
571.428710938 85.7138671875 m 1
 571.428710938 228.571289062 l 1
 714.286132812 228.571289062 l 1
 714.286132812 85.7138671875 l 1
 571.428710938 85.7138671875 l 1
0 85.7138671875 m 1
 0 228.571289062 l 1
 142.857421875 228.571289062 l 1
 142.857421875 85.7138671875 l 1
 0 85.7138671875 l 1
428.571289062 228.571289062 m 1
 428.571289062 371.428710938 l 1
 571.428710938 371.428710938 l 1
 571.428710938 228.571289062 l 1
 428.571289062 228.571289062 l 1
285.713867188 228.571289062 m 1
 285.713867188 371.428710938 l 1
 428.571289062 371.428710938 l 1
 428.571289062 228.571289062 l 1
 285.713867188 228.571289062 l 1
142.857421875 228.571289062 m 1
 142.857421875 371.428710938 l 1
 285.713867188 371.428710938 l 1
 285.713867188 228.571289062 l 1
 142.857421875 228.571289062 l 1
0 228.571289062 m 1
 0 371.428710938 l 1
 142.857421875 371.428710938 l 1
 142.857421875 228.571289062 l 1
 0 228.571289062 l 1
0 371.428710938 m 1
 0 514.286132812 l 1
 142.857421875 514.286132812 l 1
 142.857421875 371.428710938 l 1
 0 371.428710938 l 1
142.857421875 514.286132812 m 1
 142.857421875 657.142578125 l 1
 285.713867188 657.142578125 l 1
 285.713867188 514.286132812 l 1
 142.857421875 514.286132812 l 1
428.571289062 657.142578125 m 1
 428.571289062 800 l 1
 571.428710938 800 l 1
 571.428710938 657.142578125 l 1
 428.571289062 657.142578125 l 1
285.713867188 657.142578125 m 1
 285.713867188 800 l 1
 428.571289062 800 l 1
 428.571289062 657.142578125 l 1
 285.713867188 657.142578125 l 1
EndSplineSet
Validated: 524293
EndChar

StartChar: seven
Encoding: 55 55 34
Width: 856
Flags: HW
LayerCount: 2
Fore
SplineSet
142.857421875 -200 m 1
 142.857421875 -57.142578125 l 1
 285.713867188 -57.142578125 l 1
 285.713867188 -200 l 1
 142.857421875 -200 l 1
142.857421875 -57.142578125 m 1
 142.857421875 85.7138671875 l 1
 285.713867188 85.7138671875 l 1
 285.713867188 -57.142578125 l 1
 142.857421875 -57.142578125 l 1
142.857421875 85.7138671875 m 1
 142.857421875 228.571289062 l 1
 285.713867188 228.571289062 l 1
 285.713867188 85.7138671875 l 1
 142.857421875 85.7138671875 l 1
285.713867188 228.571289062 m 1
 285.713867188 371.428710938 l 1
 428.571289062 371.428710938 l 1
 428.571289062 228.571289062 l 1
 285.713867188 228.571289062 l 1
428.571289062 371.428710938 m 1
 428.571289062 514.286132812 l 1
 571.428710938 514.286132812 l 1
 571.428710938 371.428710938 l 1
 428.571289062 371.428710938 l 1
571.428710938 514.286132812 m 1
 571.428710938 657.142578125 l 1
 714.286132812 657.142578125 l 1
 714.286132812 514.286132812 l 1
 571.428710938 514.286132812 l 1
571.428710938 657.142578125 m 1
 571.428710938 800 l 1
 714.286132812 800 l 1
 714.286132812 657.142578125 l 1
 571.428710938 657.142578125 l 1
428.571289062 657.142578125 m 1
 428.571289062 800 l 1
 571.428710938 800 l 1
 571.428710938 657.142578125 l 1
 428.571289062 657.142578125 l 1
285.713867188 657.142578125 m 1
 285.713867188 800 l 1
 428.571289062 800 l 1
 428.571289062 657.142578125 l 1
 285.713867188 657.142578125 l 1
142.857421875 657.142578125 m 1
 142.857421875 800 l 1
 285.713867188 800 l 1
 285.713867188 657.142578125 l 1
 142.857421875 657.142578125 l 1
0 657.142578125 m 1
 0 800 l 1
 142.857421875 800 l 1
 142.857421875 657.142578125 l 1
 0 657.142578125 l 1
EndSplineSet
Validated: 524293
EndChar

StartChar: eight
Encoding: 56 56 35
Width: 856
Flags: HW
LayerCount: 2
Fore
SplineSet
428.571289062 -200 m 1
 428.571289062 -57.142578125 l 1
 571.428710938 -57.142578125 l 1
 571.428710938 -200 l 1
 428.571289062 -200 l 1
285.713867188 -200 m 1
 285.713867188 -57.142578125 l 1
 428.571289062 -57.142578125 l 1
 428.571289062 -200 l 1
 285.713867188 -200 l 1
142.857421875 -200 m 1
 142.857421875 -57.142578125 l 1
 285.713867188 -57.142578125 l 1
 285.713867188 -200 l 1
 142.857421875 -200 l 1
571.428710938 -57.142578125 m 1
 571.428710938 85.7138671875 l 1
 714.286132812 85.7138671875 l 1
 714.286132812 -57.142578125 l 1
 571.428710938 -57.142578125 l 1
0 -57.142578125 m 1
 0 85.7138671875 l 1
 142.857421875 85.7138671875 l 1
 142.857421875 -57.142578125 l 1
 0 -57.142578125 l 1
571.428710938 85.7138671875 m 1
 571.428710938 228.571289062 l 1
 714.286132812 228.571289062 l 1
 714.286132812 85.7138671875 l 1
 571.428710938 85.7138671875 l 1
0 85.7138671875 m 1
 0 228.571289062 l 1
 142.857421875 228.571289062 l 1
 142.857421875 85.7138671875 l 1
 0 85.7138671875 l 1
428.571289062 228.571289062 m 1
 428.571289062 371.428710938 l 1
 571.428710938 371.428710938 l 1
 571.428710938 228.571289062 l 1
 428.571289062 228.571289062 l 1
285.713867188 228.571289062 m 1
 285.713867188 371.428710938 l 1
 428.571289062 371.428710938 l 1
 428.571289062 228.571289062 l 1
 285.713867188 228.571289062 l 1
142.857421875 228.571289062 m 1
 142.857421875 371.428710938 l 1
 285.713867188 371.428710938 l 1
 285.713867188 228.571289062 l 1
 142.857421875 228.571289062 l 1
571.428710938 371.428710938 m 1
 571.428710938 514.286132812 l 1
 714.286132812 514.286132812 l 1
 714.286132812 371.428710938 l 1
 571.428710938 371.428710938 l 1
0 371.428710938 m 1
 0 514.286132812 l 1
 142.857421875 514.286132812 l 1
 142.857421875 371.428710938 l 1
 0 371.428710938 l 1
571.428710938 514.286132812 m 1
 571.428710938 657.142578125 l 1
 714.286132812 657.142578125 l 1
 714.286132812 514.286132812 l 1
 571.428710938 514.286132812 l 1
0 514.286132812 m 1
 0 657.142578125 l 1
 142.857421875 657.142578125 l 1
 142.857421875 514.286132812 l 1
 0 514.286132812 l 1
428.571289062 657.142578125 m 1
 428.571289062 800 l 1
 571.428710938 800 l 1
 571.428710938 657.142578125 l 1
 428.571289062 657.142578125 l 1
285.713867188 657.142578125 m 1
 285.713867188 800 l 1
 428.571289062 800 l 1
 428.571289062 657.142578125 l 1
 285.713867188 657.142578125 l 1
142.857421875 657.142578125 m 1
 142.857421875 800 l 1
 285.713867188 800 l 1
 285.713867188 657.142578125 l 1
 142.857421875 657.142578125 l 1
EndSplineSet
Validated: 524293
EndChar

StartChar: nine
Encoding: 57 57 36
Width: 856
Flags: HW
LayerCount: 2
Fore
SplineSet
285.713867188 -200 m 1
 285.713867188 -57.142578125 l 1
 428.571289062 -57.142578125 l 1
 428.571289062 -200 l 1
 285.713867188 -200 l 1
142.857421875 -200 m 1
 142.857421875 -57.142578125 l 1
 285.713867188 -57.142578125 l 1
 285.713867188 -200 l 1
 142.857421875 -200 l 1
428.571289062 -57.142578125 m 1
 428.571289062 85.7138671875 l 1
 571.428710938 85.7138671875 l 1
 571.428710938 -57.142578125 l 1
 428.571289062 -57.142578125 l 1
571.428710938 85.7138671875 m 1
 571.428710938 228.571289062 l 1
 714.286132812 228.571289062 l 1
 714.286132812 85.7138671875 l 1
 571.428710938 85.7138671875 l 1
571.428710938 228.571289062 m 1
 571.428710938 371.428710938 l 1
 714.286132812 371.428710938 l 1
 714.286132812 228.571289062 l 1
 571.428710938 228.571289062 l 1
428.571289062 228.571289062 m 1
 428.571289062 371.428710938 l 1
 571.428710938 371.428710938 l 1
 571.428710938 228.571289062 l 1
 428.571289062 228.571289062 l 1
285.713867188 228.571289062 m 1
 285.713867188 371.428710938 l 1
 428.571289062 371.428710938 l 1
 428.571289062 228.571289062 l 1
 285.713867188 228.571289062 l 1
142.857421875 228.571289062 m 1
 142.857421875 371.428710938 l 1
 285.713867188 371.428710938 l 1
 285.713867188 228.571289062 l 1
 142.857421875 228.571289062 l 1
571.428710938 371.428710938 m 1
 571.428710938 514.286132812 l 1
 714.286132812 514.286132812 l 1
 714.286132812 371.428710938 l 1
 571.428710938 371.428710938 l 1
0 371.428710938 m 1
 0 514.286132812 l 1
 142.857421875 514.286132812 l 1
 142.857421875 371.428710938 l 1
 0 371.428710938 l 1
571.428710938 514.286132812 m 1
 571.428710938 657.142578125 l 1
 714.286132812 657.142578125 l 1
 714.286132812 514.286132812 l 1
 571.428710938 514.286132812 l 1
0 514.286132812 m 1
 0 657.142578125 l 1
 142.857421875 657.142578125 l 1
 142.857421875 514.286132812 l 1
 0 514.286132812 l 1
428.571289062 657.142578125 m 1
 428.571289062 800 l 1
 571.428710938 800 l 1
 571.428710938 657.142578125 l 1
 428.571289062 657.142578125 l 1
285.713867188 657.142578125 m 1
 285.713867188 800 l 1
 428.571289062 800 l 1
 428.571289062 657.142578125 l 1
 285.713867188 657.142578125 l 1
142.857421875 657.142578125 m 1
 142.857421875 800 l 1
 285.713867188 800 l 1
 285.713867188 657.142578125 l 1
 142.857421875 657.142578125 l 1
EndSplineSet
Validated: 524293
EndChar

StartChar: space
Encoding: 32 32 37
Width: 715
Flags: HW
LayerCount: 2
Fore
SplineSet
0 -200 m 1
 0 -200 l 1
 0 -200 l 1
 0 -200 l 1
 0 -200 l 1
0 -200 m 1
 0 -200 l 1
 0 -200 l 1
 0 -200 l 1
 0 -200 l 1
0 -200 m 1
 0 -200 l 1
 0 -200 l 1
 0 -200 l 1
 0 -200 l 1
0 -200 m 1
 0 -200 l 1
 0 -200 l 1
 0 -200 l 1
 0 -200 l 1
EndSplineSet
Validated: 5
EndChar
